<?xml version="1.0" encoding="UTF-8" standalone="no"?>
<svg
   xmlns:dc="http://purl.org/dc/elements/1.1/"
   xmlns:cc="http://creativecommons.org/ns#"
   xmlns:rdf="http://www.w3.org/1999/02/22-rdf-syntax-ns#"
   xmlns:svg="http://www.w3.org/2000/svg"
   xmlns="http://www.w3.org/2000/svg"
   xmlns:sodipodi="http://sodipodi.sourceforge.net/DTD/sodipodi-0.dtd"
   xmlns:inkscape="http://www.inkscape.org/namespaces/inkscape"
   version="1.1"
   id="svg2"
   xml:space="preserve"
   width="1000"
   height="666.66669"
   viewBox="0 0 1000 666.66669"
   sodipodi:docname="5307947.eps"><metadata
     id="metadata8"><rdf:RDF><cc:Work
         rdf:about=""><dc:format>image/svg+xml</dc:format><dc:type
           rdf:resource="http://purl.org/dc/dcmitype/StillImage" /></cc:Work></rdf:RDF></metadata><defs
     id="defs6" /><sodipodi:namedview
     pagecolor="#ffffff"
     bordercolor="#666666"
     borderopacity="1"
     objecttolerance="10"
     gridtolerance="10"
     guidetolerance="10"
     inkscape:pageopacity="0"
     inkscape:pageshadow="2"
     inkscape:window-width="640"
     inkscape:window-height="480"
     id="namedview4" /><g
     id="g10"
     inkscape:groupmode="layer"
     inkscape:label="ink_ext_XXXXXX"
     transform="matrix(1.3333333,0,0,-1.3333333,0,666.66667)"><g
       id="g12"
       transform="scale(0.1)"><path
         d="M 7500,0 H 0 V 5000 H 7500 V 0"
         style="fill:#ffffff;fill-opacity:1;fill-rule:nonzero;stroke:none"
         id="path14" /><path
         d="m 898.945,452.359 c -110.175,132.93 -231.355,265.84 -286.445,432 -55.098,155.071 -22.031,310.141 44.07,465.221 154.231,332.31 462.72,564.91 627.97,897.23 154.25,299.07 198.31,642.45 330.53,952.61 165.25,354.45 418.65,664.6 727.13,886.13 341.53,232.61 738.15,332.3 1134.77,365.56 473.73,33.21 947.48,-33.26 1388.17,-221.56 407.64,-188.3 815.27,-454.15 1178.84,-719.99 165.26,-121.84 341.54,-265.85 451.7,-443.07 99.17,-166.16 121.2,-354.47 110.19,-542.77 -44.07,-387.68 -198.32,-753.21 -77.13,-1140.91 88.14,-287.99 297.47,-531.681 297.47,-841.83 0,-66.468 -8.27,-88.781 -19.29,-144.179 0,0 -1904.64,4.328 -2378.96,3.371 -474.31,-0.981 -3529.015,52.187 -3529.015,52.187"
         style="fill:#f3f8fd;fill-opacity:1;fill-rule:nonzero;stroke:none"
         id="path16" /><path
         d="m 813.555,441.391 c 242.465,14.398 486.785,6.218 729.415,0.738 225.36,-5.078 450.82,-14.719 676.25,-15.617 407.9,-1.633 815.52,-11.16 1223.31,-20.602 335.69,-7.769 671.03,-15.57 1006.76,-10.281 362.73,5.73 725.68,3.32 1088.44,2.973 391.3,-0.36 782.61,-1.75 1173.92,-0.961 65.68,0.129 131.51,-0.559 197.18,1.5 6.43,0.211 6.45,10.211 0,10 -283.23,-8.891 -567.69,-1.582 -851,-1.192 -426.03,0.59 -852.08,1.653 -1278.12,0.18 -265.94,-0.91 -531.58,-7.738 -797.52,-3.43 -468.36,7.59 -936.57,22.442 -1404.93,29.961 -155.25,2.488 -310.52,0.281 -465.74,3.27 -249.85,4.808 -499.61,13.64 -749.48,17.781 -182.6,3.039 -366.079,6.519 -548.485,-4.32 -6.407,-0.379 -6.446,-10.379 0,-10 v 0"
         style="fill:#c7dff5;fill-opacity:1;fill-rule:nonzero;stroke:none"
         id="path18" /><path
         d="m 2718.96,2405.23 c -104.23,-120.48 -287.02,-313.63 -283.95,-513.95 6.34,-412.44 657.22,-419.97 697.96,-26.17 19.04,184.01 -173.69,390.23 -297.43,554.41 -45.48,60.34 -30.14,85.67 -116.58,-14.29"
         style="fill:#e1f0fa;fill-opacity:1;fill-rule:nonzero;stroke:none"
         id="path20" /><path
         d="m 2747.44,2006.74 c -96.91,3.73 -127.52,-42.51 -130.06,-130.05 -2.55,-87.56 -7.4,-841.27 0.25,-905.499 7.65,-64.211 20.3,-123.652 124.85,-123.25 104.57,0.399 1994.64,-14.031 2104.3,-20.152 109.67,-6.078 156.77,64.231 154.24,111.289 -2.57,47.031 24.57,903.472 22.03,965.472 -2.56,61.99 -6.04,117 -69.79,122.35 -63.75,5.32 -2078.13,-25.08 -2205.82,-20.16"
         style="fill:#c7dff5;fill-opacity:1;fill-rule:nonzero;stroke:none"
         id="path22" /><path
         d="m 4840.1,1357.03 c -67.71,-119.47 -235.71,-294.62 -235.72,-435.729 -0.03,-355.512 566.45,-361.949 601.57,-22.551 16.41,158.6 -143.26,325.69 -254.56,489.37 -36.64,53.87 -55.65,67.1 -111.29,-31.09"
         style="fill:#f0356c;fill-opacity:1;fill-rule:nonzero;stroke:none"
         id="path24" /><path
         d="m 4425.2,878.711 c -24.79,-43.781 -86.35,-107.93 -86.35,-159.641 -0.02,-130.238 207.53,-132.601 220.38,-8.261 6.02,58.121 -52.47,119.32 -93.25,179.3 -13.43,19.731 -20.38,24.571 -40.78,-11.398"
         style="fill:#f46a9e;fill-opacity:1;fill-rule:nonzero;stroke:none"
         id="path26" /><g
         id="g28"
         transform="scale(10)"><text
           transform="matrix(1,0,0,-1,278.026,161.582)"
           style="font-variant:normal;font-weight:bold;font-size:29.4026px;font-family:Montserrat;-inkscape-font-specification:Montserrat-Bold;writing-mode:lr-tb;fill:#3b398c;fill-opacity:1;fill-rule:nonzero;stroke:none"
           id="text32"><tspan
             x="0 31.842789 55.482479 76.769958 93.323624"
             y="0"
             sodipodi:role="line"
             id="tspan30">WORLD</tspan></text><text
           transform="matrix(1,0,0,-1,278.20178,132.116)"
           style="font-variant:normal;font-weight:normal;font-size:24.3407px;font-family:Raleway;-inkscape-font-specification:Raleway-Regular;writing-mode:lr-tb;fill:#3b398c;fill-opacity:1;fill-rule:nonzero;stroke:none"
           id="text36"><tspan
             x="0 16.210907 29.305611 47.584938 65.864807 83.26841 89.474457 106.87876 125.15807 143.94908 162.22836"
             y="0"
             sodipodi:role="line"
             id="tspan34">BLOOD DONOR</tspan></text></g><path
         d="m 2824.68,890.641 c -89.59,-3.871 -136.5,20.379 -140.38,-89.52 -3.89,-109.891 7.82,-232 7.82,-284.902 0,-52.887 -15.61,-105.809 97.46,-109.887 113.06,-4.043 1204.75,4.09 1325.6,4.09 120.86,0 120.84,56.957 124.73,113.937 3.91,56.993 -9.22,311.442 -9.22,344 0,32.532 -8.36,66.852 -64.05,66.852 -120.9,0 -1248.4,-40.492 -1341.96,-44.57"
         style="fill:#f0356c;fill-opacity:1;fill-rule:nonzero;stroke:none"
         id="path38" /><g
         id="g40"
         transform="scale(10)"><text
           transform="matrix(1,0,0,-1,281.768,57.5191)"
           style="font-variant:normal;font-weight:normal;font-size:34.3891px;font-family:Sacramento;-inkscape-font-specification:Sacramento-Regular;writing-mode:lr-tb;fill:#ffffff;fill-opacity:1;fill-rule:nonzero;stroke:none"
           id="text44"><tspan
             x="0 19.427717 31.46771 46.76461 55.546844 63.102509 74.436508 101.97459 110.00094"
             y="0"
             sodipodi:role="line"
             id="tspan42">June 14th</tspan></text></g><g
         id="g46"
         transform="scale(10)"><text
           transform="matrix(1,0,0,-1,278.701,101.594)"
           style="font-variant:normal;font-weight:bold;font-size:29.4026px;font-family:Montserrat;-inkscape-font-specification:Montserrat-Bold;writing-mode:lr-tb;fill:#3b398c;fill-opacity:1;fill-rule:nonzero;stroke:none"
           id="text50"><tspan
             x="0 21.963896 43.074306"
             y="0"
             sodipodi:role="line"
             id="tspan48">DAY</tspan></text></g><path
         d="m 6211.08,642.852 c -26.31,42.238 -58.56,97.957 -88.59,151.058 -28.04,-20.808 -56.32,-41.328 -84.97,-61.289 39.55,-59.691 81.21,-124.551 101.95,-170.562 37.01,-82.098 27.48,-161.93 20.15,-172.02 -7.34,-10.098 -36.73,-41.309 -36.73,-41.309 l 67.03,31.211 95.48,159.75 c 0,0 -39.73,47.641 -74.32,103.161"
         style="fill:#fbc8b1;fill-opacity:1;fill-rule:nonzero;stroke:none"
         id="path52" /><path
         d="m 6156.19,461.082 c 12.58,10.758 47.84,9.957 60.27,-4.82 26.87,58.617 55.05,112.488 55.05,112.488 33.09,-26.719 54.7,-46.32 35.67,-70.961 -28.61,-37.027 -88.82,-130.25 -119.1,-146.32 -76.21,-40.387 -153.81,-32.949 -99.15,-3.668 51.39,27.551 60.3,46.75 64.36,67.168 4.02,20.402 2.9,46.113 2.9,46.113"
         style="fill:#f0356c;fill-opacity:1;fill-rule:nonzero;stroke:none"
         id="path54" /><path
         d="m 6235.12,584.73 c 3.84,-9.371 5.26,-18.878 5.35,-28.968 0.06,-6.442 10.06,-6.453 10,0 -0.1,10.898 -1.54,21.488 -5.7,31.617 -2.42,5.883 -12.09,3.312 -9.65,-2.649 v 0"
         style="fill:#100f0d;fill-opacity:1;fill-rule:nonzero;stroke:none"
         id="path56" /><path
         d="m 5699.65,835.32 c 4.6,-45.922 36.72,-242.39 43.14,-331.449 6.44,-89.051 -32.11,-114.75 -91.78,-156.07 89.04,-38.551 203.8,29.371 201.98,32.129 -7.36,56.011 -14.7,184.539 -5.52,276.359 9.18,91.813 8.25,201.981 8.25,201.981 l -156.07,-22.95"
         style="fill:#fbc8b1;fill-opacity:1;fill-rule:nonzero;stroke:none"
         id="path58" /><path
         d="m 5692.3,395.539 c 16.53,0.922 44.07,-21.129 44.99,-40.398 56.91,30.308 112.01,56.007 112.01,56.007 10.09,-41.316 15.38,-70.007 -14.7,-78.039 -45.22,-12.07 -186.38,-31.238 -220.34,-35.82 -33.97,-4.57 -111.11,-10.078 -55.09,16.543 56.02,26.617 87.24,33.047 102.83,46.828 15.61,13.75 30.3,34.879 30.3,34.879"
         style="fill:#f0356c;fill-opacity:1;fill-rule:nonzero;stroke:none"
         id="path60" /><path
         d="m 5820.43,456.129 c -0.23,-13.918 -4.26,-26.359 -10.34,-38.789 -2.83,-5.758 5.79,-10.828 8.63,-5.039 6.86,13.988 11.44,28.148 11.71,43.828 0.11,6.461 -9.89,6.453 -10,0 v 0"
         style="fill:#100f0d;fill-opacity:1;fill-rule:nonzero;stroke:none"
         id="path62" /><path
         d="m 5556.47,1977.77 c -5.51,-129.45 -2.75,-594.93 49.58,-801.51 52.33,-206.561 104.65,-542.588 112.93,-575.639 60.59,-13.762 137.71,-5.512 145.97,2.75 5.52,66.098 -27.55,374.59 -27.55,374.59 68.87,-77.121 190.05,-294.719 209.34,-308.492 18.35,-22.949 144.13,56 140.47,71.621 -22.03,79.871 -256.16,526.07 -267.17,661.03 -11.02,134.96 71.61,446.2 41.32,636.24 -24.8,101.91 -404.89,-60.59 -404.89,-60.59"
         style="fill:#3b398c;fill-opacity:1;fill-rule:nonzero;stroke:none"
         id="path64" /><path
         d="m 5774.59,1981.43 c -1.21,-33.91 6.92,-76.01 28.3,-103.38 13.75,-17.6 44.06,-38.93 67.34,-27.64 5.81,2.81 0.74,11.44 -5.03,8.63 -23.59,-11.42 -52.85,21.17 -62.23,37.83 -13.61,24.19 -19.36,57.23 -18.38,84.56 0.22,6.45 -9.78,6.42 -10,0 v 0"
         style="fill:#100f0d;fill-opacity:1;fill-rule:nonzero;stroke:none"
         id="path66" /><path
         d="m 5595.54,1962.62 c -0.39,-40.03 2.64,-79.81 4.14,-119.81 0.1,-2.72 2.2,-5 5,-5 17.23,0 37.02,-6.25 38.39,15.5 1.09,17.34 -1.97,34.92 -1.2,52.39 0.88,20.39 3.28,40.63 3.61,61.06 -1.67,-1.67 -3.33,-3.33 -5,-5 0.46,0 0.92,0 1.38,0 -1.44,2.51 -2.89,5.02 -4.32,7.52 -0.46,-0.92 -0.92,-1.84 -1.38,-2.76 -2.87,-5.74 5.75,-10.81 8.63,-5.04 0.46,0.92 0.92,1.84 1.38,2.76 1.66,3.32 -0.34,7.52 -4.31,7.52 -0.46,0 -0.92,0 -1.38,0 -2.77,0 -4.95,-2.28 -5,-5 -0.43,-26.23 -3.71,-52.28 -4.14,-78.51 -0.19,-11.59 1.38,-23.33 1.73,-34.94 0.26,-8.91 -23.84,-5.5 -28.39,-5.5 1.67,-1.67 3.33,-3.33 5,-5 -1.5,40 -4.53,79.78 -4.14,119.81 0.06,6.45 -9.94,6.44 -10,0 v 0"
         style="fill:#100f0d;fill-opacity:1;fill-rule:nonzero;stroke:none"
         id="path68" /><path
         d="m 4907.39,2837.1 c 25.7,-27.55 1.83,-84.47 27.52,-123.03 25.72,-38.54 36.73,-51.4 36.73,-51.4 l -58.76,-34.9 c 0,0 -93.64,106.51 -93.64,121.19 0,14.71 88.15,88.14 88.15,88.14"
         style="fill:#e0b09a;fill-opacity:1;fill-rule:nonzero;stroke:none"
         id="path70" /><path
         d="m 5779.12,3320.03 c 11.92,48.66 134.04,121.19 225.85,-19.28 91.81,-140.48 51.4,-230.9 19.74,-385.13 -31.68,-154.24 35.8,-181.79 50.95,-221.74 17.89,-20.65 4.13,-33.04 -15.15,-24.78 27.55,-28.91 2.76,-77.13 -77.12,-37.19 6.87,-26.16 -50.96,-16.52 -107.42,56.47 -56.46,73 -81.25,183.16 -67.47,307.11 13.77,123.93 5.5,247.89 -20.67,274.04 -26.17,26.17 -8.71,50.5 -8.71,50.5"
         style="fill:#3b398c;fill-opacity:1;fill-rule:nonzero;stroke:none"
         id="path72" /><path
         d="m 5735.49,3310.86 c 15.15,11.01 39.95,20.65 46.83,12.39 6.89,-8.27 24.79,-59.23 19.28,-67.48 -5.51,-8.26 -39.94,-11.02 -46.81,-9.65 -6.9,1.39 -19.3,64.74 -19.3,64.74"
         style="fill:#f0356c;fill-opacity:1;fill-rule:nonzero;stroke:none"
         id="path74" /><path
         d="m 4282.56,3771.14 c -80.34,3.41 -84.22,-0.57 -89.01,36.11 -4.78,36.68 -1.05,76.97 6.56,82.44 7.61,5.45 29.16,6.27 66.53,4.29 61.65,-3.26 83.56,2.56 81.44,-39.72 -3.44,-68.71 6.44,-86.16 -65.52,-83.12 z m 780.54,-154.41 c -117.88,246.02 -386.82,269.13 -553.16,196.53 -79.34,-32.65 -67.96,-25.36 -66.78,25.94 1.18,51.3 13.22,127.29 -63.42,131.28 -75.06,3.89 -120.59,5.08 -120.59,5.08 -44.99,-3.46 -160.6,15.32 -165.42,-32.31 -4.81,-47.62 1.73,-87.96 1.25,-109.94 -0.52,-21.99 2.48,-54.99 -64.3,-29.06 -66.77,25.95 -350.6,52.78 -520.04,-155.43 -169.44,-208.19 -225.51,-534.14 115.39,-847.07 340.92,-312.93 479.06,-404.96 489.55,-437.99 10.47,-33.03 17.12,-126.7 17.85,-145.36 1.18,-30.24 29.19,-54.37 137.7,-54.84 108.53,-0.44 175.2,7.62 175.96,40.81 1.21,53.16 0.45,106.55 1.87,168.84 0.49,21.37 274.4,134.46 510.24,463.32 235.82,328.86 221.8,534.14 103.9,780.2"
         style="fill:#c7dff5;fill-opacity:1;fill-rule:nonzero;stroke:none"
         id="path76" /><path
         d="m 4260.96,3563.23 c -94.2,136.01 -491.28,284.25 -709.4,-88.67 -218.1,-372.91 530.94,-1006.4 710.82,-996.14 179.87,10.25 856.05,544 740.86,975.46 -86.19,322.86 -512.71,328.31 -681.73,138.43 -23.05,-25.56 -42.52,-58.47 -60.55,-29.08"
         style="fill:#e1f0fa;fill-opacity:1;fill-rule:nonzero;stroke:none"
         id="path78" /><path
         d="m 5640.94,2979.41 c 0,0 173.52,151.5 83.74,286.36 -38.75,77.22 -177.85,151.12 -278.39,61.6 -83.54,-74.38 -45.33,-163.83 -71.59,-173.51 -24.65,-9.09 -43.56,-11.47 -43.63,-15.74 -0.08,-4.28 30.49,-28.31 42.7,-41.19 -11.92,-112 13.77,-147.8 110.42,-158.78 13.06,-10.14 29.59,-65.23 48.87,-154.74 78.49,-8.27 155.61,13.76 155.61,13.76 l -47.73,182.24"
         style="fill:#fbc8b1;fill-opacity:1;fill-rule:nonzero;stroke:none"
         id="path80" /><path
         d="m 5441.37,3144.65 c 7.36,5.08 9.81,17.19 5.01,24.79 -4.5,7.13 -13.5,6.77 -18.03,0.24 -4.06,-5.85 -3.75,-14.73 -1.02,-20.97 2.98,-6.77 12.19,-8.29 17.09,-2.87 8.25,9.13 4.76,36.35 -11.67,31.86 -14.71,-4.02 -9.7,-37.27 6.12,-33.05 10.2,2.72 14.96,21.03 4.92,26.76 -5.42,3.09 -12.1,-0.73 -13.31,-6.44 -1.24,-5.85 1.75,-12.44 6.54,-15.78 2.04,-1.43 5.81,-0.58 6.84,1.79 1.89,4.4 2.48,8.09 0.18,12.46 -3,5.71 -11.63,0.66 -8.63,-5.05 -0.06,-0.78 -0.13,-1.57 -0.19,-2.36 2.28,0.6 4.57,1.2 6.84,1.79 -1.39,0.97 -1.82,3.43 -1.84,4.97 0,0.38 -0.41,-0.88 -1.34,-0.06 -0.27,0.24 0.14,-1.45 0.16,-1.99 0.04,-1.18 -1.23,-7.94 -2.71,-5.99 -2.3,3.01 -3.12,8.56 -1.54,12.06 1.56,3.43 2.8,-0.53 3.35,-2.57 0.95,-3.48 0.93,-8.03 -0.83,-11.27 -0.35,-0.66 0,-0.73 -0.56,-0.43 -1.01,0.53 -1.28,2.99 -1.37,3.94 -0.19,2.06 0.07,4.02 0.62,6 0.31,1.1 1.63,2.45 0.96,2.42 3.42,0.16 1.42,-10.2 -0.63,-11.62 -5.28,-3.63 -0.29,-12.3 5.04,-8.63 v 0"
         style="fill:#100f0d;fill-opacity:1;fill-rule:nonzero;stroke:none"
         id="path82" /><path
         d="m 5481.42,3251.78 c -11.29,9.74 -22.75,21.1 -37.69,24.69 -6.27,1.51 -8.93,-8.14 -2.66,-9.64 13.21,-3.18 23.31,-13.51 33.28,-22.12 4.85,-4.19 11.96,2.85 7.07,7.07 v 0"
         style="fill:#100f0d;fill-opacity:1;fill-rule:nonzero;stroke:none"
         id="path84" /><path
         d="m 5367.66,3076.06 c 17.61,-10.61 37.27,-2.97 53.52,6.69 5.54,3.29 0.51,11.94 -5.04,8.64 -13.02,-7.75 -29.09,-15.34 -43.44,-6.69 -5.54,3.33 -10.56,-5.32 -5.04,-8.64 v 0"
         style="fill:#100f0d;fill-opacity:1;fill-rule:nonzero;stroke:none"
         id="path86" /><path
         d="m 5366.18,3034.77 c 23.33,-8.99 44.86,28.01 54.45,43.96 3.34,5.54 -5.31,10.56 -8.63,5.04 -5.08,-8.42 -10.46,-16.54 -16.79,-24.07 -5.98,-7.1 -16.18,-19.22 -26.37,-15.29 -6.03,2.32 -8.62,-7.35 -2.66,-9.64 v 0"
         style="fill:#100f0d;fill-opacity:1;fill-rule:nonzero;stroke:none"
         id="path88" /><path
         d="m 4953.91,3111.2 c -387.46,207.59 -542.43,-118.86 -870.87,-128.09 -277.47,-7.81 -430.55,107.73 -526.59,139.31 206.97,-450.56 631.6,-627.71 645.82,-632.35 44.99,-14.7 36.99,-80.5 36.99,-125.04 0,-93.63 -3.52,-96.25 50.23,-97.6 74.72,-1.85 72.17,7.07 68.86,122.57 -1.8,63.02 2.73,99.46 19.28,106.49 16.54,7.03 465.48,313.07 576.28,614.71"
         style="fill:#f0356c;fill-opacity:1;fill-rule:nonzero;stroke:none"
         id="path90" /><path
         d="m 5442.18,3331.04 c 2.75,-16.52 64.72,-43.14 93.65,-48.65 9.63,-13.77 -17.27,-68.58 30.29,-99.15 38.57,-24.78 19.26,-21.12 17.88,-50.04 -1.35,-28.91 -3.2,-51.41 24.35,-19.74 27.54,31.68 54.16,45.91 76.19,4.6 22.04,-41.32 -9.62,-87.23 -74.81,-78.97 -9.63,-8.26 23.41,-67.48 33.04,-66.1 9.65,1.38 127.16,44.53 136.8,186.38 9.64,141.85 -85.38,201.06 -161.13,217.58 -75.73,16.54 -166.62,-19.73 -176.26,-45.91"
         style="fill:#3b398c;fill-opacity:1;fill-rule:nonzero;stroke:none"
         id="path92" /><path
         d="m 4915.64,2653.49 c -23.88,28.46 -28.47,44.97 -45.91,65.17 -17.43,20.22 -65.18,50.51 -80.78,47.75 -15.61,-2.74 -11.01,-22.05 23.87,-46.82 -2.76,-3.67 -78.95,2.74 -124.86,32.13 -45.91,29.37 -46.84,-8.25 -19.29,-23.87 -33.04,8.27 -39.49,-16.53 -5.52,-31.22 -15.59,-4.58 4.58,-27.54 22.05,-31.2 -8.27,-13.78 74.38,-34.88 116.6,-38.56 42.22,-3.68 40.39,-33.98 40.39,-33.98 l 76.66,61.07"
         style="fill:#fbc8b1;fill-opacity:1;fill-rule:nonzero;stroke:none"
         id="path94" /><path
         d="m 4655.14,2729.98 c 39.44,-24.2 80.18,-41.02 126.45,-43.84 6.45,-0.39 6.41,9.61 0,10 -44.51,2.71 -83.52,19.23 -121.41,42.47 -5.51,3.39 -10.53,-5.27 -5.04,-8.63 v 0"
         style="fill:#100f0d;fill-opacity:1;fill-rule:nonzero;stroke:none"
         id="path96" /><path
         d="m 4655.14,2696 c 24.75,-11.74 51.48,-20.98 77.97,-27.93 10.5,-2.76 31.68,-9.93 41.82,-3.28 5.37,3.51 0.37,12.17 -5.04,8.63 -7.98,-5.22 -32.25,3.8 -40.42,5.95 -23.38,6.13 -47.51,14.94 -69.29,25.26 -5.8,2.75 -10.87,-5.88 -5.04,-8.63 v 0"
         style="fill:#100f0d;fill-opacity:1;fill-rule:nonzero;stroke:none"
         id="path98" /><path
         d="m 4672.85,2666.13 c 24.89,-9.49 52.89,-18.04 79.38,-21.31 6.38,-0.79 6.31,9.22 0,10 -25.46,3.14 -52.81,11.84 -76.72,20.95 -6.04,2.3 -8.63,-7.37 -2.66,-9.64 v 0"
         style="fill:#100f0d;fill-opacity:1;fill-rule:nonzero;stroke:none"
         id="path100" /><path
         d="m 4917.48,2637.42 c 12.38,17.9 38.56,27.55 45.43,35.81 6.89,8.25 15.16,-2.76 37.2,-24.79 33.04,6.88 144.6,-33.05 231.35,-15.15 86.76,17.91 228.61,143.22 305.74,152.86 77.11,9.65 -125.32,-235.48 -271.3,-263.03 -145.99,-27.53 -278.2,-8.26 -348.42,114.3"
         style="fill:#f0356c;fill-opacity:1;fill-rule:nonzero;stroke:none"
         id="path102" /><path
         d="m 4834.84,2591.97 c 16.53,33.06 75.74,66.12 84.01,61.99 8.26,-4.14 41.32,-34.44 41.32,-34.44 48.2,-6.88 181.77,-61.97 285.06,-35.8 103.29,26.16 194.18,166.63 261.65,221.73 67.49,55.08 173.53,53.69 209.34,26.15 35.8,-27.54 121.18,-140.46 196.92,-417.26 75.75,-276.82 93.67,-364.97 89.53,-378.72 -4.13,-13.78 -340.16,-90.89 -524.69,-64.73 -11.02,0 -15.16,6.88 -15.16,48.2 0,41.3 -22.03,260.28 -34.42,340.15 -48.2,-49.57 -212.55,-143.22 -383.31,-12.38 -170.77,130.82 -186.83,170.76 -178.57,190.03 -19.28,24.8 -35.81,49.58 -31.68,55.08"
         style="fill:#f46a9e;fill-opacity:1;fill-rule:nonzero;stroke:none"
         id="path104" /><path
         d="m 4876.81,2547.23 c 10.53,14.26 24.77,27.2 38.8,37.86 10.79,8.21 23.47,13.3 33.85,21.72 5.01,4.06 -2.11,11.09 -7.07,7.07 -5.84,-4.73 -13.34,-7.17 -19.8,-10.9 -7.36,-4.26 -14.57,-10.43 -21.02,-15.83 -12.05,-10.09 -24.05,-22.22 -33.4,-34.87 -3.83,-5.2 4.85,-10.18 8.64,-5.05 v 0"
         style="fill:#100f0d;fill-opacity:1;fill-rule:nonzero;stroke:none"
         id="path106" /><path
         d="m 5424.04,2347.13 c 66.71,40.39 128.47,97.23 177.29,157.76 4,4.97 -3.02,12.09 -7.07,7.07 -48.29,-59.87 -109.36,-116.3 -175.26,-156.2 -5.5,-3.33 -0.48,-11.98 5.04,-8.63 v 0"
         style="fill:#100f0d;fill-opacity:1;fill-rule:nonzero;stroke:none"
         id="path108" /><path
         d="m 5625.84,1812.51 c -0.02,-79.62 -0.22,-159.23 5.12,-238.71 5.21,-77.53 18.71,-153.92 31.1,-230.52 5.62,-34.68 9.58,-69.39 19.64,-103.16 8.94,-30.04 23.19,-58.3 38.61,-85.45 38.66,-68.06 84.23,-132.17 121.05,-201.248 3.03,-5.703 11.66,-0.652 8.63,5.039 -34.15,64.089 -74.95,125.109 -112.7,187.129 -17.4,28.56 -32.55,58.22 -43.58,89.84 -11.39,32.68 -15.17,67.05 -20.49,101.03 -12.39,79.02 -26.41,157.48 -32.26,237.34 -5.81,79.4 -5.14,159.15 -5.12,238.71 0,6.45 -10,6.45 -10,0 v 0"
         style="fill:#100f0d;fill-opacity:1;fill-rule:nonzero;stroke:none"
         id="path110" /><path
         d="m 5868.39,1990.21 c 9.33,-51.66 7.17,-107.2 7.88,-159.59 0.78,-57.89 -0.46,-115.55 -4.59,-173.29 -7.5,-104.84 -27.19,-210.95 -12.47,-316.06 14.25,-101.73 66.64,-187.65 117.31,-275.02 55.96,-96.48 105.89,-196.809 159.55,-294.629 3.1,-5.652 11.74,-0.609 8.64,5.039 -52.26,95.262 -101.12,192.731 -155.13,286.96 -54.35,94.82 -110.85,185.75 -122.58,296.8 -11.11,105.23 9.01,211.68 16.05,316.53 3.64,54.32 3.83,108.69 3.09,163.11 -0.68,50.35 0.86,103.14 -8.1,152.81 -1.16,6.34 -10.78,3.64 -9.65,-2.66 v 0"
         style="fill:#100f0d;fill-opacity:1;fill-rule:nonzero;stroke:none"
         id="path112" /><path
         d="m 5765.11,1090.94 c 16.29,-78.58 32.4,-158.631 40.8,-238.471 4.02,-38.239 10.57,-76.149 12.04,-114.598 1.42,-37.531 4.07,-75.891 13.27,-112.41 1.58,-6.25 11.22,-3.59 9.65,2.66 -9.77,38.711 -11.76,79.168 -13.27,118.93 -1.57,41.551 -8.88,83.25 -13.84,124.531 -8.94,74.316 -23.83,148.748 -39,222.008 -1.31,6.32 -10.95,3.64 -9.65,-2.65 v 0"
         style="fill:#100f0d;fill-opacity:1;fill-rule:nonzero;stroke:none"
         id="path114" /><path
         d="m 5539.72,2406.79 c 23.2,11.41 43.07,27.8 65.47,40.53 21.56,12.26 43.24,23.02 62.24,39.21 4.91,4.19 -2.19,11.23 -7.07,7.07 -18.28,-15.57 -39.29,-26.2 -60.22,-37.64 -22.6,-12.36 -42.26,-29.11 -65.46,-40.54 -5.79,-2.84 -0.72,-11.47 5.04,-8.63 v 0"
         style="fill:#100f0d;fill-opacity:1;fill-rule:nonzero;stroke:none"
         id="path116" /><path
         d="m 6001.98,2927.51 c -19.52,-46.5 -31.6,-88.12 -19.14,-138.26 12.03,-48.42 48.24,-82.77 73.83,-123.59 3.42,-5.45 12.07,-0.44 8.63,5.05 -24.1,38.45 -54.75,69.69 -70.42,113.33 -17.64,49.19 -2.44,95.1 16.75,140.81 2.49,5.95 -7.19,8.51 -9.65,2.66 v 0"
         style="fill:#100f0d;fill-opacity:1;fill-rule:nonzero;stroke:none"
         id="path118" /><path
         d="m 5860.6,3067.72 c 17.18,-84.44 -0.9,-167.73 7.06,-252.56 3.34,-35.63 8.72,-70.78 22.8,-103.92 14.91,-35.1 31.46,-54.43 63.34,-74.6 5.46,-3.46 10.48,5.2 5.04,8.63 -17.6,11.14 -32.82,21.25 -44.55,39 -11.34,17.17 -18.05,38.25 -24.31,57.65 -12.15,37.66 -14.51,80.8 -15.11,120.2 -0.55,36.44 4.53,72.76 5.25,109.17 0.66,33.31 -3.24,66.5 -9.88,99.09 -1.28,6.32 -10.92,3.64 -9.64,-2.66 v 0"
         style="fill:#100f0d;fill-opacity:1;fill-rule:nonzero;stroke:none"
         id="path120" /><path
         d="m 5911.84,2763.68 c 4.03,-58.65 29.91,-107.99 81.43,-137.46 5.61,-3.21 10.64,5.44 5.04,8.63 -48.38,27.68 -72.68,73.67 -76.47,128.83 -0.44,6.4 -10.44,6.44 -10,0 v 0"
         style="fill:#100f0d;fill-opacity:1;fill-rule:nonzero;stroke:none"
         id="path122" /><path
         d="m 4884.82,3555.94 c -16.65,-29.22 -36.08,-48.6 -24.06,-78.66 12.03,-30.06 62.8,-31.79 73.66,8.02 6.76,24.81 -18.16,58.25 -27.07,70.64 -9.51,13.29 -13.27,16.3 -22.53,0"
         style="fill:#f0356c;fill-opacity:1;fill-rule:nonzero;stroke:none"
         id="path124" /><path
         d="m 4815.63,3398.59 c -29.09,-51.12 -63.08,-85 -42.05,-137.55 21.02,-52.56 109.8,-55.61 128.78,14.01 11.83,43.37 -31.75,101.83 -47.3,123.54 -16.64,23.22 -23.22,28.46 -39.43,0"
         style="fill:#f0356c;fill-opacity:1;fill-rule:nonzero;stroke:none"
         id="path126" /><path
         d="m 2621.31,3595.46 c 279.1,73.44 576.78,268.83 495.77,569.22 -88.13,326.86 -429.67,176.27 -308.49,-7.32 160.86,-243.73 525.76,76.86 822.63,352.53 411.31,381.92 1271.33,379.15 1490.37,-213.14 143.66,-388.49 -188.7,-701.29 -188.7,-701.29"
         style="fill:none;stroke:#f46a9e;stroke-width:40;stroke-linecap:butt;stroke-linejoin:miter;stroke-miterlimit:10;stroke-dasharray:none;stroke-opacity:1"
         id="path128" /><path
         d="m 2383.52,2976.9 c 17.9,15.82 52.32,39.93 38.55,75.74 -13.77,35.81 -20.65,61.97 -15.15,80.56 5.51,18.6 134.27,-42 134.27,-42 l -106.04,-140.47 -51.63,26.17"
         style="fill:#e0b09a;fill-opacity:1;fill-rule:nonzero;stroke:none"
         id="path130" /><path
         d="m 1834.02,2866.04 c 60.61,-37.18 177.67,-84.93 207.97,-90.43 30.3,-5.51 36.48,-24.32 84.83,28.71 56.91,62.43 209.87,192.55 223.65,202.18 13.77,9.64 56.45,-13.78 82.62,-45.45 26.17,-31.67 -323.63,-312.61 -323.63,-312.61 l -275.44,217.6"
         style="fill:#f0356c;fill-opacity:1;fill-rule:nonzero;stroke:none"
         id="path132" /><path
         d="m 2452.03,3829.07 c -153.24,-244.15 -233.76,-428.56 -198.26,-554.97 61.41,-218.75 439.08,-296.33 545.44,-6.93 52.82,143.73 -138.52,429.43 -221.63,571.42 -42.59,72.75 -86.85,52.15 -125.55,-9.52"
         style="fill:#f0356c;fill-opacity:1;fill-rule:nonzero;stroke:none"
         id="path134" /><path
         d="m 1865.7,522.121 c -5.51,-53.699 -12.39,-101.91 -12.39,-130.82 0,-28.942 -6.88,-52.34 101.91,-55.09 108.78,-2.75 236.86,-8.27 249.26,19.281 12.4,27.539 -63.35,33.047 -115.68,56.457 -52.33,23.422 -95.02,35.813 -95.02,97.781 0,61.969 -128.08,12.391 -128.08,12.391"
         style="fill:#15151a;fill-opacity:1;fill-rule:nonzero;stroke:none"
         id="path136" /><path
         d="m 1347.9,526.262 c -16.53,-35.801 -39.94,-130.84 -41.33,-152.871 -1.37,-22.039 22.04,-34.43 173.54,-34.43 151.47,0 188.67,24.789 119.8,39.941 -68.86,15.137 -122.57,38.547 -130.83,59.219 -8.26,20.66 -1.37,84 -1.37,84 l -119.81,4.141"
         style="fill:#15151a;fill-opacity:1;fill-rule:nonzero;stroke:none"
         id="path138" /><path
         d="m 1513.15,2140.27 c -27.53,-115.67 -63.35,-187.28 8.27,-424.16 71.61,-236.87 -11.02,-542.59 -30.3,-622.48 -19.28,-79.86 -137.72,-443.431 -159.75,-570.118 -8.26,-13.782 137.71,-44.082 159.75,-33.051 22.03,11.008 256.15,494.848 294.71,662.859 68.86,-184.539 55.09,-635.328 60.6,-649.101 77.11,-27.539 173.51,-11.02 179.02,5.511 5.51,16.532 74.36,556.36 49.59,818.02 -24.8,261.66 -143.23,614.22 -132.22,765.71 -201.06,46.81 -429.67,46.81 -429.67,46.81"
         style="fill:#3b398c;fill-opacity:1;fill-rule:nonzero;stroke:none"
         id="path140" /><path
         d="m 2403.71,2964.73 c 41.33,24.78 63.83,67.03 78.97,108.34 15.15,41.32 34.42,56 52.32,54.63 17.91,-1.38 -1.38,-34.43 -12.39,-46.83 -11.02,-12.39 -9.64,-28.93 22.03,0 31.68,28.92 60.59,55.09 86.76,50.96 26.17,-4.13 -48.21,-63.35 -48.21,-63.35 37.19,12.39 63.57,39.05 74.85,37.63 22.03,-2.75 -1.85,-22.48 -1.85,-22.48 12.39,-8.28 -2.75,-31.69 -2.75,-31.69 11.93,-21.11 -21.12,-39.93 -62.43,-57.83 -41.3,-17.91 -73.91,-24.79 -106.97,-81.26 -33.04,-56.45 -80.33,51.88 -80.33,51.88"
         style="fill:#fbc8b1;fill-opacity:1;fill-rule:nonzero;stroke:none"
         id="path142" /><path
         d="m 1540.7,3403.57 c 67.94,66.11 249.74,134.04 319.51,-7.35 18.34,-42.22 14.22,-116.36 34.42,-138.4 20.19,-22.03 46.82,-32.34 46.82,-43.37 0,-11.01 -35.33,-18.35 -31.66,-36.72 3.66,-18.37 20.19,-121.19 -51.43,-130.38 -71.61,-9.19 -97.33,0 -104.66,-34.89 -7.34,-34.88 -23.88,-150.57 -23.88,-150.57 l -170.77,3.69 c 0,0 51.42,137.69 9.19,214.82 -42.23,77.12 -130.37,179.95 -27.54,323.17"
         style="fill:#fbc8b1;fill-opacity:1;fill-rule:nonzero;stroke:none"
         id="path144" /><path
         d="m 1574.68,3062.05 c 35.89,5.94 54.53,42.79 55.36,61.6 -102.56,45.16 -11.21,177.83 54.8,74.83 18.39,-8.35 44.96,11.3 44.96,11.3 -9.8,32.44 -13.99,54.69 0.02,74.79 14.01,20.11 -3.66,50.04 -9.81,80.46 -6.14,30.38 102.79,65.59 115.23,112.92 26.73,101.64 -64.29,126.89 -89.91,56.44 -3.52,47.25 -51.97,53.62 -61.81,-0.02 -16.86,46.6 -46.36,42.34 -80.09,-11.3 -34.08,-54.18 -163.74,-107.35 -134.91,-176.45 -68.41,-62.91 -21.46,-182.66 106.16,-284.57"
         style="fill:#3b398c;fill-opacity:1;fill-rule:nonzero;stroke:none"
         id="path146" /><path
         d="m 1561.35,2928.01 c 96.4,42.68 168.03,42.68 294.72,-57.85 126.69,-100.53 185.9,-144.59 225.84,-140.46 39.95,4.13 275.43,228.6 301.61,247.89 19.27,15.13 37.18,8.25 70.24,-17.91 33.05,-26.15 85.37,-46.83 55.08,-86.76 -30.3,-39.94 -217.6,-282.31 -280.95,-347.04 -63.35,-64.73 -161.12,-89.51 -252.02,-30.29 -9.63,-119.82 -21.12,-297.47 -13.77,-391.12 5.93,-75.5 19.29,-97.78 -29.39,-86.31 -57.65,13.59 -338.33,33.07 -445.72,25.72 -23.73,-1.62 -54.69,2 -46.82,49.58 34.88,211.17 39.41,447.59 42.68,545.35 5.52,163.88 53.71,272.67 78.5,289.2"
         style="fill:#f46a9e;fill-opacity:1;fill-rule:nonzero;stroke:none"
         id="path148" /><path
         d="m 1837.11,3262.97 c -3.96,3.52 -7.36,7.64 -8.04,13.08 -0.09,1.02 -0.11,2.05 -0.06,3.07 0.02,0.98 1.1,3.29 -0.13,2.81 0.8,0.31 2.62,-1.31 3.14,-2.07 2.63,-3.83 5.58,-9.63 4.68,-14.44 -0.71,-3.77 -4.22,5.37 -4.52,6.21 -0.64,1.77 -1.24,3.65 -1.37,5.53 -0.26,3.53 2.43,-0.17 -3.1,0.58 -1.2,0.17 -0.58,0.39 0.33,-0.66 0.64,-0.73 1.27,-2.05 1.79,-3.02 1.3,-2.41 2.24,-4.97 3.01,-7.59 0.32,-1.09 0.56,-2.2 0.76,-3.32 -0.12,0.71 0,-0.82 0,-0.8 0,-0.14 -0.01,-0.28 -0.02,-0.43 -0.02,1.81 1.21,2.95 3.68,3.43 -6.45,0.37 -6.42,-9.63 0,-10 13.21,-0.76 2.18,22.96 -1,27.32 -3.25,4.46 -9.59,7.42 -13.39,1.63 -4.67,-7.12 -0.26,-16.3 2.89,-23.09 3.89,-8.41 15.4,-9.2 19.7,-0.78 4.24,8.32 -1.22,20.59 -6.77,27.02 -5.67,6.56 -15.79,5.69 -18.88,-2.54 -3.94,-10.5 2.63,-22.26 10.23,-29.01 4.8,-4.27 11.9,2.78 7.07,7.07 v 0"
         style="fill:#100f0d;fill-opacity:1;fill-rule:nonzero;stroke:none"
         id="path150" /><path
         d="m 1790.66,3334.31 c 1.98,9.29 9.08,16.84 14.96,24.01 7.08,8.61 17.79,11.15 26.82,17.06 5.36,3.52 0.36,12.18 -5.05,8.63 -5.26,-3.44 -10.9,-5.89 -16.54,-8.61 -5.72,-2.76 -10.18,-7.43 -14.16,-12.28 -6.44,-7.84 -13.51,-15.97 -15.67,-26.16 -1.34,-6.29 8.3,-8.96 9.64,-2.65 v 0"
         style="fill:#100f0d;fill-opacity:1;fill-rule:nonzero;stroke:none"
         id="path152" /><path
         d="m 1841.05,3157.66 c 8.72,-7.24 18,-12.63 28.85,-15.98 12.74,-3.94 22.44,-3.08 35.3,-2.01 6.37,0.53 6.43,10.54 0,10 -10.02,-0.84 -18.41,-1.97 -28.43,0.57 -10.84,2.74 -20.05,7.35 -28.64,14.49 -4.93,4.08 -12.04,-2.95 -7.08,-7.07 v 0"
         style="fill:#100f0d;fill-opacity:1;fill-rule:nonzero;stroke:none"
         id="path154" /><path
         d="m 1585.04,3161.43 c 22.6,-47.07 75.81,-60.95 116.19,-25.81 4.87,4.25 -2.23,11.29 -7.07,7.08 -35.76,-31.13 -80.95,-16.91 -100.49,23.78 -2.79,5.81 -11.41,0.74 -8.63,-5.05 v 0"
         style="fill:#100f0d;fill-opacity:1;fill-rule:nonzero;stroke:none"
         id="path156" /><path
         d="m 2554.7,3050.8 c 23.7,4.66 43.56,19.15 60.96,35.26 4.75,4.39 -2.34,11.45 -7.07,7.07 -16.21,-15.01 -34.47,-28.34 -56.55,-32.7 -6.32,-1.24 -3.64,-10.88 2.66,-9.63 v 0"
         style="fill:#100f0d;fill-opacity:1;fill-rule:nonzero;stroke:none"
         id="path158" /><path
         d="m 2561.13,3027.86 c 34.76,13.01 71.33,27.34 98.61,53.6 4.65,4.48 -2.43,11.55 -7.07,7.08 -25.9,-24.94 -61.27,-38.72 -94.19,-51.04 -5.98,-2.24 -3.4,-11.91 2.65,-9.64 v 0"
         style="fill:#100f0d;fill-opacity:1;fill-rule:nonzero;stroke:none"
         id="path160" /><path
         d="m 2568.06,3005.63 c 30.25,1.41 64.02,19.81 85.23,40.94 4.58,4.56 -2.5,11.63 -7.07,7.07 -19.08,-19 -51.09,-36.75 -78.16,-38.01 -6.42,-0.29 -6.45,-10.29 0,-10 v 0"
         style="fill:#100f0d;fill-opacity:1;fill-rule:nonzero;stroke:none"
         id="path162" /><path
         d="m 1744.74,2610.62 c 40.87,-27.66 85.66,-48.77 128.35,-73.22 46.48,-26.62 90.55,-55 140.93,-74.19 6.04,-2.29 8.63,7.38 2.66,9.65 -49.44,18.82 -93.34,46.27 -138.55,73.17 -42.28,25.17 -87.43,45.53 -128.34,73.22 -5.36,3.63 -10.36,-5.05 -5.05,-8.63 v 0"
         style="fill:#100f0d;fill-opacity:1;fill-rule:nonzero;stroke:none"
         id="path164" /><path
         d="m 1597.89,1694.31 c 48.26,-88.26 77.84,-187.93 113.42,-281.69 17.7,-46.64 35.14,-93.31 48.31,-141.48 13.25,-48.43 14.25,-98.48 28.73,-146.69 1.86,-6.16 11.5,-3.53 9.64,2.66 -14.45,48.1 -16.11,98.13 -28.73,146.7 -13.31,51.25 -32.86,100.75 -51.61,150.18 -34.81,91.74 -63.89,188.98 -111.13,275.36 -3.09,5.66 -11.73,0.61 -8.63,-5.04 v 0"
         style="fill:#100f0d;fill-opacity:1;fill-rule:nonzero;stroke:none"
         id="path166" /><path
         d="m 1819.38,2012.66 c 6.59,-53.8 25.54,-104.74 40.38,-156.65 16.59,-58.06 32.95,-116.2 49.84,-174.16 35.55,-121.94 73.72,-242.13 89.76,-368.58 15.28,-120.57 13.89,-243.04 -0.15,-363.629 -7.02,-60.352 -15.47,-120.571 -23.13,-180.84 -7.65,-60.321 -8.85,-126.582 -31.65,-183.391 -2.41,-5.988 7.27,-8.558 9.64,-2.66 21.17,52.75 19.68,110 29.38,165.262 10.61,60.429 15.29,122.34 23.45,183.16 16.17,120.408 17.51,242.758 4.62,363.518 -12.91,121.04 -47.12,236.08 -81.31,352.42 -18.04,61.34 -35.46,122.85 -53.03,184.34 -17.04,59.62 -40.24,119.48 -47.8,181.21 -0.77,6.31 -10.78,6.38 -10,0 v 0"
         style="fill:#100f0d;fill-opacity:1;fill-rule:nonzero;stroke:none"
         id="path168" /><path
         d="m 1864.65,1876.91 c 37.35,30.54 41.64,79.58 41.86,124.72 0.03,6.45 -9.97,6.45 -10,0 -0.2,-42.63 -3.55,-88.71 -38.93,-117.65 -5,-4.08 2.12,-11.11 7.07,-7.07 v 0"
         style="fill:#100f0d;fill-opacity:1;fill-rule:nonzero;stroke:none"
         id="path170" /><path
         d="m 1571.5,1949.06 c 20.7,-5.17 40.31,-2.56 61.35,-4.74 6.16,-0.64 62.89,2.64 63.69,-0.26 6.9,-25.08 7.79,-53.36 11.47,-79.18 1.41,-9.89 2.88,-19.76 4.6,-29.61 2.55,-14.65 5.28,-17.08 -5.6,-30.25 -13.71,-16.59 -27.95,-32.72 -40.24,-50.43 -7.36,-10.62 -53.08,38.67 -58.24,44.95 -17.1,20.8 -18.16,54.31 -24.82,79.93 -6.4,24.59 -6.36,49.45 -9.56,74.42 -0.81,6.31 -10.82,6.38 -10,0 2.59,-20.15 2.93,-40.42 6.24,-60.51 4.05,-24.56 11.73,-48.41 15.97,-73.03 3.3,-19.21 20.23,-34.16 33.43,-46.96 12.12,-11.77 27.93,-30.46 45.36,-33.66 2.27,-0.42 4.39,0.26 5.64,2.3 12.44,20.25 28.48,37.48 43.29,55.92 3.74,4.65 17.15,15.1 13.63,22.59 -18.75,40.07 -11.69,90.45 -23.37,132.85 -0.56,2.05 -2.62,3.8 -4.82,3.67 -19.72,-1.11 -38.52,-3.98 -58.42,-3.28 -22,0.76 -45.63,-0.41 -66.94,4.93 -6.25,1.56 -8.91,-8.08 -2.66,-9.65 v 0"
         style="fill:#100f0d;fill-opacity:1;fill-rule:nonzero;stroke:none"
         id="path172" /></g></g></svg>
