<?xml version="1.0" encoding="UTF-8" standalone="no"?>
<svg
   xmlns:dc="http://purl.org/dc/elements/1.1/"
   xmlns:cc="http://creativecommons.org/ns#"
   xmlns:rdf="http://www.w3.org/1999/02/22-rdf-syntax-ns#"
   xmlns:svg="http://www.w3.org/2000/svg"
   xmlns="http://www.w3.org/2000/svg"
   xmlns:sodipodi="http://sodipodi.sourceforge.net/DTD/sodipodi-0.dtd"
   xmlns:inkscape="http://www.inkscape.org/namespaces/inkscape"
   version="1.1"
   id="svg2"
   xml:space="preserve"
   width="4000"
   height="2666.6667"
   viewBox="0 0 4000 2666.6667"
   sodipodi:docname="11039.eps"><metadata
     id="metadata8"><rdf:RDF><cc:Work
         rdf:about=""><dc:format>image/svg+xml</dc:format><dc:type
           rdf:resource="http://purl.org/dc/dcmitype/StillImage" /></cc:Work></rdf:RDF></metadata><defs
     id="defs6" /><sodipodi:namedview
     pagecolor="#ffffff"
     bordercolor="#666666"
     borderopacity="1"
     objecttolerance="10"
     gridtolerance="10"
     guidetolerance="10"
     inkscape:pageopacity="0"
     inkscape:pageshadow="2"
     inkscape:window-width="640"
     inkscape:window-height="480"
     id="namedview4" /><g
     id="g10"
     inkscape:groupmode="layer"
     inkscape:label="ink_ext_XXXXXX"
     transform="matrix(1.3333333,0,0,-1.3333333,0,2666.6667)"><g
       id="g12"
       transform="scale(0.1)"><path
         d="M 30000,0 H 0 V 20000 H 30000 V 0"
         style="fill:#ffffff;fill-opacity:1;fill-rule:nonzero;stroke:none"
         id="path14" /><path
         d="m 24903.9,11934.5 c -4111,-699 -1700.6,7030.7 -7300.9,3749.7 -2227.2,-1304.8 -5434.1,274.2 -8505.2,-588.8 C 6277.37,14302.8 6972.15,11702.1 7245.05,10851.2 7796.3,9132.4 5050.82,9817.9 3459.44,9079.4 963.203,7921 3152.9,3250.7 5511.12,3231.3 7869.35,3211.8 25194.6,3270 25194.6,3270 c 0,0 1029.2,656 1575.7,2008.2 1120.2,2771.8 1753.5,7271.8 -1866.4,6656.3"
         style="fill:#ebf2f9;fill-opacity:1;fill-rule:nonzero;stroke:none"
         id="path16" /><path
         d="M 19789,8689.9 V 3283.3 H 15829.6 V 8689.9 H 19789"
         style="fill:#f9ddbf;fill-opacity:1;fill-rule:nonzero;stroke:none"
         id="path18" /><path
         d="M 22864.8,8689.9 V 3283 H 19789 v 5406.9 h 3075.8"
         style="fill:#efcdaf;fill-opacity:1;fill-rule:nonzero;stroke:none"
         id="path20" /><path
         d="M 20795.4,10996.3 19498.2,8325.4 h -3941.3 l 2054.8,2661.2 3183.7,9.7"
         style="fill:#c65447;fill-opacity:1;fill-rule:nonzero;stroke:none"
         id="path22" /><path
         d="M 20951,10996.3 19653.7,8325.4 17826,8220.1 l -2113.5,105.3 2054.7,2661.2 3183.8,9.7"
         style="fill:#f9ddbf;fill-opacity:1;fill-rule:nonzero;stroke:none"
         id="path24" /><path
         d="m 17802.6,9660.9 h -82.8 c -281.1,0 -509.1,-228 -509.1,-509.2 V 7857.9 h 1084.6 v 1310.4 c 0,272 -220.6,492.6 -492.7,492.6"
         style="fill:#efcdaf;fill-opacity:1;fill-rule:nonzero;stroke:none"
         id="path26" /><path
         d="m 23293.2,8177.3 h -3577.5 l -2114.5,2819.1 1190.4,-0.3 2325.5,-0.4 2176.1,-2818.4"
         style="fill:#c65447;fill-opacity:1;fill-rule:nonzero;stroke:none"
         id="path28" /><path
         d="m 23293.2,8177.3 h -655.5 l -3846.1,2818.8 2325.5,-0.4 2176.1,-2818.4"
         style="fill:#b2443b;fill-opacity:1;fill-rule:nonzero;stroke:none"
         id="path30" /><path
         d="M 17337.6,7579.5 16414,5678 h -2805.9 l 1462.9,1894.5 2266.6,7"
         style="fill:#c65447;fill-opacity:1;fill-rule:nonzero;stroke:none"
         id="path32" /><path
         d="m 17421.7,7579.5 -923.6,-1901.5 -1226.8,-503 -1579.1,503 1462.8,1894.5 2266.7,7"
         style="fill:#f9ddbf;fill-opacity:1;fill-rule:nonzero;stroke:none"
         id="path34" /><path
         d="M 16492,5678 V 3641.6 l -732,-328.3 c -31.1,4.6 -203.1,40 -203.1,40 0,0 -514.8,-225.7 -1075.7,-33.3 -257.2,88.3 -532.6,-43.5 -789,144.3 V 5678 H 16492"
         style="fill:#f9ddbf;fill-opacity:1;fill-rule:nonzero;stroke:none"
         id="path36" /><path
         d="M 18862.8,5678 V 4022.6 c -169.3,-49.3 -333,-93.3 -490.9,-132.2 -543.3,-133.8 -1017.5,-209.1 -1415.3,-248.8 H 16492 V 5678 h 2370.8"
         style="fill:#efcdaf;fill-opacity:1;fill-rule:nonzero;stroke:none"
         id="path38" /><path
         d="m 19123.4,5565.5 h -2546.9 l -1505.6,2007.1 758.7,-0.1 1744.5,-0.4 1549.3,-2006.6"
         style="fill:#c65447;fill-opacity:1;fill-rule:nonzero;stroke:none"
         id="path40" /><path
         d="M 15660.8,5255.8 V 3360 l -103.9,-6.7 c -31.1,4.6 -84,-30.6 -84,-30.6 0,0 -430.8,-161.7 -991.7,30.6 v 1883.1 c 0,174.7 74.8,332.1 194.2,441.6 106.6,98.1 249,157.9 405.4,157.9 153.9,0 293.9,-60.1 397.6,-157.9 112.4,-105.7 182.4,-255.8 182.4,-422.2"
         style="fill:#efcdaf;fill-opacity:1;fill-rule:nonzero;stroke:none"
         id="path42" /><path
         d="m 14826.3,6434.6 c 0,135.2 109.6,244.7 244.7,244.7 135.1,0 244.6,-109.5 244.6,-244.7 0,-135.1 -109.5,-244.6 -244.6,-244.6 -135.1,0 -244.7,109.5 -244.7,244.6"
         style="fill:#efcdaf;fill-opacity:1;fill-rule:nonzero;stroke:none"
         id="path44" /><path
         d="M 19123.4,5565.5 H 18640 l -2810.4,2007 1744.5,-0.4 1549.3,-2006.6"
         style="fill:#b2443b;fill-opacity:1;fill-rule:nonzero;stroke:none"
         id="path46" /><path
         d="m 4869.56,3283 c 2208.33,654.7 4885.34,1256.5 7084.44,729.9 2199,-526.7 3044,-1237.3 5458.9,397.6 219.2,148.3 421.4,258.3 610.7,336.9 -426.4,77.3 -996.2,212.3 -743.6,348.8 263.3,142.5 703.9,-101 958.7,-271.1 63.7,19.5 126,35.3 187.1,47.8 -581.8,416.6 -1613.7,1204.6 -1133.7,1231.1 473.5,26.1 1046,-764.6 1325.4,-1202.1 47.9,4.6 95.1,7.4 141.7,8.1 24.7,227.3 164.2,564.9 498.3,590 341.6,25.7 -110.2,-353.2 -351.8,-593.8 1300.3,-86.5 2180.4,-1562.5 4910.5,-631 419.4,143.1 852.4,134.4 1260.4,46.2 256.7,567.1 1019,2109.6 1649.4,1949.1 629.8,-160.3 -930,-1495.9 -1522,-1979.4 70.5,-18.3 140,-38.7 208.5,-61 358.4,264.3 1030.6,691.5 1414.6,503.9 375.4,-183.3 -565.6,-445.7 -1178.1,-589.3 816.8,-324.1 1425.6,-860.1 1425.6,-860.1 L 4869.56,3283"
         style="fill:#a8d29f;fill-opacity:1;fill-rule:nonzero;stroke:none"
         id="path48" /><path
         d="m 11964.3,3262.5 441.7,5184.2 c 0,0 -6.6,389.1 -342.5,421 -358.4,34 -415.5,-349.1 -415.5,-349.1 0,0 2,-33.7 38.7,-37.2 38.6,-3.7 48.1,29 48.1,29 0,0 44,295.3 320.4,269.1 258.9,-24.6 264,-324.6 264,-324.6 l -491.6,-5179.5 136.7,-12.9"
         style="fill:#233862;fill-opacity:1;fill-rule:nonzero;stroke:none"
         id="path50" /><path
         d="m 11781.5,3279.8 222.9,-21.1 2.3,235 c 0,0 5,32.1 -39.9,38.3 -41.7,5.6 -123.7,19.5 -134,-5.1 -9,-21.6 -51.3,-247.1 -51.3,-247.1"
         style="fill:#233862;fill-opacity:1;fill-rule:nonzero;stroke:none"
         id="path52" /><path
         d="m 11963.8,8967.6 -2.4,78.3 -242.8,-56.8 4.7,-142.8 c 4.6,-114.5 88.6,-170.1 222.2,-234.2 32.6,-15.6 68.3,-24.4 104.5,-25.9 l 117.5,-4.6 c 99,-3.9 166.3,98.5 124.5,188.3 -99,212.9 -328.2,197.7 -328.2,197.7"
         style="fill:#ffb27d;fill-opacity:1;fill-rule:nonzero;stroke:none"
         id="path54" /><path
         d="m 11187,12551.4 c 0,0 33.8,-406.3 59.6,-776.9 10.4,-149.3 19.4,-292.7 24.5,-401.5 5.1,-111.8 6,-187 -0.4,-194.2 -94.4,-108.2 -81.8,-866.1 -19.2,-1151.1 5.5,-25.2 14,-55.1 24.5,-88.6 100.8,-319.3 403.7,-963.8 403.7,-963.8 0,0 110.8,-30.7 189.2,-15.2 65.4,13.1 120,81.2 120,81.2 -26.1,63.5 -56.9,767.2 -179.2,1179.3 -52.3,176.3 -40.3,1695.3 -153.1,1928.4 -194.6,402.4 -469.6,402.4 -469.6,402.4"
         style="fill:#88b374;fill-opacity:1;fill-rule:nonzero;stroke:none"
         id="path56" /><path
         d="m 11270.7,11178.8 c -94.4,-108.2 -81.8,-866.1 -19.2,-1151.1 5.5,-25.2 14,-55.1 24.5,-88.6 549.9,950.9 162.4,1549.3 162.4,1549.3 -63.3,-13.6 -161.3,-302.4 -167.7,-309.6"
         style="fill:#88b374;fill-opacity:1;fill-rule:nonzero;stroke:none"
         id="path58" /><path
         d="m 10294,3847.9 c 0,0 -38.7,-582.3 71.2,-590.4 14.7,-1.1 557.7,-1.1 557.7,-1.1 h 700.6 c 0,0 -11.8,171.1 -214.5,206.4 -202.6,35.3 -541.8,177.7 -664.6,445.6 -129.1,281.7 -450.4,-60.5 -450.4,-60.5"
         style="fill:#0f2949;fill-opacity:1;fill-rule:nonzero;stroke:none"
         id="path60" /><path
         d="m 9240.34,3847.9 c 0,0 -38.68,-582.3 71.27,-590.4 14.63,-1.1 557.71,-1.1 557.71,-1.1 h 700.48 c 0,0 -11.7,171.1 -214.4,206.4 -202.6,35.3 -541.82,177.7 -664.58,445.6 -129.15,281.7 -450.48,-60.5 -450.48,-60.5"
         style="fill:#163560;fill-opacity:1;fill-rule:nonzero;stroke:none"
         id="path62" /><path
         d="m 10260.8,5251.4 c -17.3,-246.2 -52.4,-562.8 -39.9,-848.2 17.5,-399.1 30.2,-735.6 30.2,-735.6 263.1,-89.5 745.8,19 745.8,19 0,0 171.3,1008.5 312.3,1813.6 63.3,360.7 115.8,672.7 135.4,820.1 63.5,476.3 -67.5,3008.7 -67.5,3008.7 0,0 -712,456.3 -1006.1,221 -294.1,-235.2 -475.14,-465.1 -1.2,-3041.9 36,-195.5 -70.4,-705.2 -109,-1256.7"
         style="fill:#2b478b;fill-opacity:1;fill-rule:nonzero;stroke:none"
         id="path64" /><path
         d="m 10260.8,5251.4 c -17.3,-246.2 -49,-640.3 -36.5,-925.7 247.5,262 735.3,814.6 1084.9,1174.5 63.3,360.7 115.8,672.7 135.4,820.1 63.5,476.3 -67.5,3008.7 -67.5,3008.7 0,0 -712,456.3 -1006.1,221 -294.1,-235.2 -475.14,-465.1 -1.2,-3041.9 36,-195.5 -70.4,-705.2 -109,-1256.7"
         style="fill:#233862;fill-opacity:1;fill-rule:nonzero;stroke:none"
         id="path66" /><path
         d="m 10733.7,9277.5 c 0,0 -63.9,-2535 -163.8,-3005 -99.9,-470 -621.35,-2621.6 -621.35,-2621.6 0,0 -488.75,-44.5 -744.18,64.9 0,0 16.26,996.4 102.93,1581.9 80.96,546.9 226.16,1047 205.35,1244.6 -274.53,2605.6 -76.35,2820.9 234.98,3032.9 311.37,211.9 986.07,-297.7 986.07,-297.7"
         style="fill:#2b478b;fill-opacity:1;fill-rule:nonzero;stroke:none"
         id="path68" /><path
         d="m 11195,13201.7 c 0,0 -195.5,-297.1 -156.5,-574.4 l -289.2,-696.9 -521.9,797.8 c 0,0 275.7,300.1 378.6,709.1 l 589,-235.6"
         style="fill:#ffb27d;fill-opacity:1;fill-rule:nonzero;stroke:none"
         id="path70" /><path
         d="m 11280.7,12948.2 c 0,0 -711.8,-30.8 -724.7,396.4 -12.9,427.3 -205.3,711.6 327.1,749.2 437.8,30.8 583.3,-151.7 622.3,-293.3 39,-141.6 39.1,-829.4 -224.7,-852.3"
         style="fill:#ffb27d;fill-opacity:1;fill-rule:nonzero;stroke:none"
         id="path72" /><path
         d="m 11720.7,11546.9 c 0,0 166,779.8 -485.8,1012.3 -60.2,21.4 -123.8,46.8 -195.5,65 -25,-66.5 -93.6,-177.5 -269,-157.1 -259.3,30.2 -443.9,183.1 -523,261.5 -14.4,0 -20,-0.5 -20,-0.5 l -223.5,-57.1 c -238.2,-61 -428.52,-241.7 -498.11,-477.6 -312.67,-1059.5 -119.56,-2334 -50.87,-3014.3 152.93,-14.2 446.71,-55.6 702.18,-71.7 51,-3.2 103.8,-6.4 158.3,-9.4 771.3,-43.2 1077.8,81.7 1077.8,81.7 0,0 20.5,16.5 14,107.1 -33.5,466.4 -132.6,604.2 -120.6,692.8 26.8,199.3 434.1,1567.3 434.1,1567.3"
         style="fill:#a8d29f;fill-opacity:1;fill-rule:nonzero;stroke:none"
         id="path74" /><path
         d="m 9454.92,9179.1 c 152.93,-14.2 446.71,-55.6 702.18,-71.7 74.5,1255.4 -437.07,2461.2 -437.07,2461.2 -19.26,-13.5 -37.52,-28.7 -54.77,-45.4 -89.1,-86.5 -125.64,761.8 -165.76,606.8 -295.13,-1140 -134.88,-2446.7 -44.58,-2950.9"
         style="fill:#88b374;fill-opacity:1;fill-rule:nonzero;stroke:none"
         id="path76" /><path
         d="m 11510.2,13355.7 c 0,0 138.5,-549.7 -96.6,-627.1 -235.2,-77.4 -859.4,-15.4 -859.2,658.6 0,0 327.6,-195.4 484.1,-190.5 156.5,5 257.5,95.2 402.1,24.7 0,0 52.9,3.5 69.6,134.3"
         style="fill:#c8d9e8;fill-opacity:1;fill-rule:nonzero;stroke:none"
         id="path78" /><path
         d="m 10589.5,13960.9 c 11.9,43.6 65.7,66.5 65.7,66.5 400.9,174.6 693.7,-16.5 693.7,-16.5 -245.7,329.9 -838.7,260.6 -963.6,-36.9 -203.9,-485.7 169.1,-586.8 169.1,-586.8 0,0 372.5,156.5 156.8,352.7 -71.5,65 -106,122.9 -117.5,173.1 v 0 0 c -3.8,16.8 -5.1,32.8 -4.2,47.9"
         style="fill:#c8d9e8;fill-opacity:1;fill-rule:nonzero;stroke:none"
         id="path80" /><path
         d="m 9680.03,11086.7 c 0,0 751.87,-820 1682.57,-793.4 l -1722.57,1406.7 40,-613.3"
         style="fill:#88b374;fill-opacity:1;fill-rule:nonzero;stroke:none"
         id="path82" /><path
         d="m 11224.6,13094.3 c 0,0 13.1,-46.7 130.1,-34.5 0,0 98.3,10.2 93.1,61.9 0,0 -97.1,32.9 -223.2,-27.4"
         style="fill:#ffffff;fill-opacity:1;fill-rule:nonzero;stroke:none"
         id="path84" /><path
         d="m 10697.5,11739.3 845.9,-1137.6 27.6,431.8 z"
         style="fill:#88b374;fill-opacity:1;fill-rule:nonzero;stroke:none"
         id="path86" /><path
         d="m 8988.36,11665 c 0,0 -303.32,-227.4 -451.6,-631.1 -113.62,-309.4 95.85,-1533.6 166.9,-1722.2 67.9,-180.2 571.03,-902.2 769.35,-1036.8 13.73,-9.3 31.34,-10.6 46.16,-3.2 l 285.5,139.5 c 26.63,13.4 36.68,46.3 22.03,72.3 l -544.11,1003.3 181.36,1175.5 c 60.27,390.8 -115.6,783.7 -453.22,989.4 -7.34,4.5 -14.8,8.9 -22.37,13.3"
         style="fill:#4a82d3;fill-opacity:1;fill-rule:nonzero;stroke:none"
         id="path88" /><path
         d="m 9007.32,5291.7 -113.54,-473.5 -70.25,-293.1 -233.95,-975.5 c 0,0 -200.22,-61.7 -408.33,0 0,0 -77.09,322.8 -79.28,725.5 -1.23,210.5 18.14,443.1 79.66,662.6 24.97,89.3 57.06,176.4 97.5,259 330.02,674.1 728.19,95 728.19,95"
         style="fill:#ffb27d;fill-opacity:1;fill-rule:nonzero;stroke:none"
         id="path90" /><path
         d="M 9201.19,3264.6 H 8101.87 c 0,0 -17.38,166.3 31.04,325.5 7.13,23.6 15.77,47.1 26.11,69.9 0,0 245.43,-55.7 457.05,0 0,0 199,-169.5 319.28,-221.5 120.19,-52 253.11,-23.7 265.84,-173.9"
         style="fill:#2b478b;fill-opacity:1;fill-rule:nonzero;stroke:none"
         id="path92" /><path
         d="m 8893.78,4818.2 -70.25,-293.1 c -119.54,-76.2 -377.4,-214.3 -721.56,-250 -1.23,210.5 18.14,443.1 79.66,662.6 101.11,51.2 204.02,78.1 291.66,62.8 218.17,-38.1 347.86,-117.8 420.49,-182.3"
         style="fill:#e8945b;fill-opacity:1;fill-rule:nonzero;stroke:none"
         id="path94" /><path
         d="m 8630.21,3264.6 h -528.34 c 0,0 -17.38,166.3 31.04,325.5 132.63,-41.3 402.55,-144.9 497.3,-325.5"
         style="fill:#1f396d;fill-opacity:1;fill-rule:nonzero;stroke:none"
         id="path96" /><path
         d="m 8131.03,5291.7 -113.56,-473.5 -70.26,-293.1 -233.93,-975.5 c 0,0 -200.24,-61.7 -408.34,0 0,0 -77.09,322.8 -79.28,725.5 -1.24,210.5 18.13,443.1 79.66,662.6 24.96,89.3 57.06,176.4 97.51,259 330,674.1 728.2,95 728.2,95"
         style="fill:#ffb27d;fill-opacity:1;fill-rule:nonzero;stroke:none"
         id="path98" /><path
         d="m 7282.7,3660 c 0,0 245.41,-55.7 457.05,0 0,0 199,-169.5 319.27,-221.5 120.26,-51.9 253.18,-23.7 265.83,-173.9 h -1099.3 c 0,0 -22.93,219.4 57.15,395.4"
         style="fill:#2b478b;fill-opacity:1;fill-rule:nonzero;stroke:none"
         id="path100" /><path
         d="m 8017.47,4818.2 -70.26,-293.1 c -119.54,-76.2 -377.39,-214.3 -721.55,-250 -1.24,210.5 18.13,443.1 79.66,662.6 101.1,51.2 204.02,78.1 291.65,62.8 218.19,-38.1 347.86,-117.8 420.5,-182.3"
         style="fill:#e8945b;fill-opacity:1;fill-rule:nonzero;stroke:none"
         id="path102" /><path
         d="m 9236.7,4849.6 c -26.4,-97.7 -115.07,-165.5 -216.28,-165.5 H 7257.75 c -132.72,0 -237.26,112.9 -227.1,245.1 18.51,240.1 84.59,632.2 113.46,897 11.96,110 17.47,198.1 10.54,244 -177.92,1177.3 -327.27,2564 -309.14,2829 2.57,37.4 4.37,56.6 4.37,56.6 0,0 128.37,10.9 323.66,18.4 567.65,22.5 1700.76,18.6 1889.04,-352.7 191.78,-378.1 307.59,-2888.9 307.59,-2888.9 28.01,-234.6 -71,-651.9 -133.47,-883"
         style="fill:#c65447;fill-opacity:1;fill-rule:nonzero;stroke:none"
         id="path104" /><path
         d="m 7144.11,5826.2 c 11.96,110 17.47,198.1 10.54,244 -177.92,1177.3 -327.27,2564 -309.14,2829 2.57,37.4 4.37,56.6 4.37,56.6 0,0 128.37,10.9 323.66,18.4 293.65,-172.9 484.77,-467.6 484.77,-467.6 0,0 -59.15,-2203.1 -514.2,-2680.4"
         style="fill:#b2443b;fill-opacity:1;fill-rule:nonzero;stroke:none"
         id="path106" /><path
         d="m 8238.63,13805.1 c -140.81,35.2 -222.6,-75.7 -222.6,-206.4 0,-130.6 105.9,-236.5 236.55,-236.5 130.65,0 236.56,151.3 236.56,282 0,130.6 -123.75,129.2 -250.51,160.9"
         style="fill:#b2443b;fill-opacity:1;fill-rule:nonzero;stroke:none"
         id="path108" /><path
         d="m 8165.95,12450.4 c 0,0 -733.55,660.7 -69.49,1128.4 0,0 198.16,52.8 298.88,33.9 0,0 360.96,105.6 572.19,-139.5 211.22,-245.2 303.01,-422.5 121.96,-641.2 -181.05,-218.8 -923.54,-381.6 -923.54,-381.6"
         style="fill:#c65447;fill-opacity:1;fill-rule:nonzero;stroke:none"
         id="path110" /><path
         d="m 7324.23,8460.5 c 0,0 181.08,-363.4 -167.02,-641.1 0,0 -150.92,-103.2 -174.06,31 -23.12,134.1 3.56,87.4 -32.87,275.5 -36.42,188.1 10.18,382.7 118.41,467.4 l 255.54,-132.8"
         style="fill:#ffb27d;fill-opacity:1;fill-rule:nonzero;stroke:none"
         id="path112" /><path
         d="m 9823.36,8447.3 c 0,0 274.94,-181.2 92.97,-587.6 0,0 -86.78,-161 -168.86,-52.4 -82.06,108.7 40.68,151.7 -114.11,241.7 -165.66,96.3 -133.33,166.7 -160.35,225.9 l 350.35,172.4"
         style="fill:#ffb27d;fill-opacity:1;fill-rule:nonzero;stroke:none"
         id="path114" /><path
         d="m 8766.83,12456.6 c 0,0 -9.02,-98.9 -25.82,-232.6 -8.17,-65.3 -18.14,-139 -29.91,-213.4 -8.36,-53.5 -17.65,-107.4 -27.81,-159 l -227.1,-767 -533.29,863 c 0,0 125.33,103.7 295.18,665.6 1.61,6 2.75,9.2 2.75,9.2 l 546,-165.8"
         style="fill:#ffb27d;fill-opacity:1;fill-rule:nonzero;stroke:none"
         id="path116" /><path
         d="m 9077.58,8672.5 c 6.93,-86.2 -14.91,-101.8 -14.91,-101.8 0,0 -327.92,-118.9 -1152.59,-77.8 -89.24,4.5 -173.25,9 -251.77,13.7 -531.48,31.3 -815.73,64.1 -815.73,64.1 0,0 -435.3,1004.7 382.5,2242.6 92.47,140 201,283 327.93,427.8 132.45,151 161.7,353.1 211.82,545.2 14.34,55.1 -27.16,67.2 -6.46,119.1 0,0 149.16,42.2 164.53,42.2 84.69,-74.6 196.44,-219.7 473.76,-248.4 187.51,-19.5 260.89,86.1 287.58,149.5 71.48,-25.8 145.55,-70.5 206.21,-99.6 7.85,-3.8 15.59,-7.6 23.22,-11.5 370.61,-188.3 548.43,-619.4 428.88,-1017.5 -137.02,-456.4 -373.63,-1254.2 -393.9,-1388.2 -12.82,-84.3 93.14,-215.4 128.93,-659.4"
         style="fill:#739af0;fill-opacity:1;fill-rule:nonzero;stroke:none"
         id="path118" /><path
         d="m 8741.01,12224 c -8.17,-65.3 -35.8,-244.1 -47.56,-318.6 -564.71,220.2 -490.75,649.3 -475.37,707.8 1.61,6 2.75,9.2 2.75,9.2 0,0 298.78,-212.1 520.18,-398.4"
         style="fill:#e8945b;fill-opacity:1;fill-rule:nonzero;stroke:none"
         id="path120" /><path
         d="m 8862.05,12148.1 c 0,0 -652.23,-20.9 -659,385.4 -6.78,406.4 -95.53,677.4 320.61,707.9 416.14,30.6 499.66,-123.1 534.91,-258.2 35.26,-135.1 -27.03,-819.2 -196.52,-835.1"
         style="fill:#ffb27d;fill-opacity:1;fill-rule:nonzero;stroke:none"
         id="path122" /><path
         d="m 8919.02,13302.3 c 0,0 -40.93,-678.5 -836.06,-605.7 0,0 16.91,939.6 836.06,605.7"
         style="fill:#c65447;fill-opacity:1;fill-rule:nonzero;stroke:none"
         id="path124" /><path
         d="m 8766.83,13234.9 c 0,0 222.8,-275.8 323.87,-363.8 0,0 247.87,355.7 -323.87,363.8"
         style="fill:#c65447;fill-opacity:1;fill-rule:nonzero;stroke:none"
         id="path126" /><path
         d="m 8766.83,13234.9 c 0,0 200.18,-338.1 301.25,-426.1 0,0 270.49,418 -301.25,426.1 v 0"
         style="fill:#c65447;fill-opacity:1;fill-rule:nonzero;stroke:none"
         id="path128" /><path
         d="m 7658.31,8506.6 c -531.48,31.3 -815.73,64.1 -815.73,64.1 0,0 -435.3,1004.7 382.5,2242.6 165.59,-385.9 556.08,-1417.3 433.23,-2306.7"
         style="fill:#4a82d3;fill-opacity:1;fill-rule:nonzero;stroke:none"
         id="path130" /><path
         d="m 7922.9,11947.6 c 0,0 -630.97,-129.5 -912.07,-455 -215.39,-249.4 -451.03,-1468.9 -451.03,-1670.4 0,-192.5 221.35,-1216.3 359.5,-1412.6 9.61,-13.6 25.61,-21.1 42.2,-19.4 l 355.34,37.7 c 29.65,3.1 50.66,30.4 46.12,59.9 l -199.67,1294.1 700.81,1243 c 0,0 413.23,489.8 58.8,922.7"
         style="fill:#739af0;fill-opacity:1;fill-rule:nonzero;stroke:none"
         id="path132" /><path
         d="m 14469,10488.7 1041,-1846.1 -1430,-718.3 -950.2,1891.6 1339.2,672.8"
         style="fill:#f99746;fill-opacity:1;fill-rule:nonzero;stroke:none"
         id="path134" /><path
         d="m 14220.7,10363.9 822,-1958.8 -2206.2,-1108.3 -764.3,1987.8 2148.5,1079.3"
         style="fill:#f99746;fill-opacity:1;fill-rule:nonzero;stroke:none"
         id="path136" /><path
         d="m 12960.7,10113.9 c 206.6,111.9 403,10.2 533.2,-97.4 144.4,-119.2 237.2,-266.8 241.1,-273 6.1,-9.8 5.1,-21.8 -2.2,-26.8 -7.3,-5 -18.2,-1.1 -24.3,8.7 -0.9,1.4 -92.8,147.3 -231.1,261.2 -182.9,150.6 -357,176.9 -517.4,78.5 -108.9,-66.8 -166.8,-160.6 -172,-278.9 -9.7,-221.2 168.6,-458.1 170.4,-460.5 6.9,-9.1 7.3,-21.5 0.8,-27.7 -6.6,-6.1 -17.5,-3.7 -24.4,5.4 -7.9,10.2 -191.7,254.2 -181.3,493.3 5.7,130.1 68,232.6 185.4,304.6 7.3,4.5 14.6,8.6 21.8,12.6"
         style="fill:#dd7f3a;fill-opacity:1;fill-rule:nonzero;stroke:none"
         id="path138" /><path
         d="m 14321.9,10412.5 949.4,-1889.8 -229.7,-115.4 -820.9,1956.6 101.2,48.6"
         style="fill:#dd7f3a;fill-opacity:1;fill-rule:nonzero;stroke:none"
         id="path140" /><path
         d="m 12740.4,10425.7 c 0,0 342.1,12.9 464.4,-331.4 18.4,-51.9 4.7,-111.2 -38.1,-145.8 -24.7,-20 -58.8,-32.2 -105,-20.2 -123.2,32 -139.6,40 -180.3,49.8 -174.2,41.9 -322.1,156.2 -352.6,281 l 211.6,166.6"
         style="fill:#ffb27d;fill-opacity:1;fill-rule:nonzero;stroke:none"
         id="path142" /><path
         d="m 9583.62,12358.2 c 0,0 -275.26,-427.8 8.5,-838.4 187.9,-272 1349.38,-1065.1 1542.38,-1152.4 192.9,-87.2 1351.1,-362.1 1519.1,-298.8 0,0 53.2,66.2 79.1,174.8 27.5,115.3 -5.6,205.5 -5.6,205.5 0,0 -1211.5,478.6 -1322.7,528.9 -161,72.8 -918.8,1021.8 -918.8,1021.8 0,0 -350.9,473.1 -901.98,358.6"
         style="fill:#a8d29f;fill-opacity:1;fill-rule:nonzero;stroke:none"
         id="path144" /><path
         d="m 21482,9461.1 c 0,0 25.3,-306.3 43.9,-353.3 18.5,-47 142.2,-192.8 156.5,-190.7 14.3,2.1 22.9,13.6 15.6,43.2 -7.2,29.7 -49.9,121.4 -36.3,119 13.5,-2.4 100.3,-80.6 156.7,-66.1 56.3,14.6 166.2,18.2 132.6,147.9 -33.5,129.7 -261.2,333.3 -269.9,354.2 -73.7,177.1 -199.1,-54.2 -199.1,-54.2"
         style="fill:#ed975d;fill-opacity:1;fill-rule:nonzero;stroke:none"
         id="path146" /><path
         d="m 21586.9,9383.4 c -108.2,-34.8 -125.6,-26.9 -125.6,-26.9 0,0 -527,959.4 -580.4,1047.3 -53.3,87.8 -1118.8,1075.9 -1118.8,1075.9 l 273.8,1021 c 0,0 1211.9,-1569.3 1342.7,-1794.5 216.3,-372.1 343,-1236.3 343,-1236.3 0,0 -49.6,-59.2 -134.7,-86.5"
         style="fill:#1e3d70;fill-opacity:1;fill-rule:nonzero;stroke:none"
         id="path148" /><path
         d="m 21430.1,8588.6 c 3.4,-7.7 12.4,-11.1 20.1,-7.6 7.7,3.4 11.1,12.5 7.7,20.2 -0.9,1.9 -88.8,201.3 -13.6,360.2 40.3,84.9 120.2,144 237.6,175.7 172.8,46.6 320.3,0.6 438.3,-136.8 89.2,-103.9 127.3,-223.8 127.7,-225 2.5,-8.1 11.1,-12.5 19.1,-10 8,2.5 12.5,11 10.1,19.1 -1.7,5.1 -40.1,126.4 -133.1,235.1 -84,98 -228.7,202.1 -446.8,152.8 -7.7,-1.8 -15.4,-3.7 -23.3,-5.8 -126.5,-34.1 -213,-98.8 -257.2,-192.2 -81.2,-171.8 9.5,-377 13.4,-385.7"
         style="fill:#3675c1;fill-opacity:1;fill-rule:nonzero;stroke:none"
         id="path150" /><path
         d="m 20840.9,8542.8 668.3,-2800.9 1032.4,233.3 -634.6,2808.5 -1066.1,-240.9"
         style="fill:#3675c1;fill-opacity:1;fill-rule:nonzero;stroke:none"
         id="path152" /><path
         d="m 22757,9004.2 -1637.7,-398.5 728,-2787.4 1727.7,381.7 -818,2804.2"
         style="fill:#699ff0;fill-opacity:1;fill-rule:nonzero;stroke:none"
         id="path154" /><path
         d="m 21506.3,8605.8 c 3.5,-7.6 12.5,-11 20.2,-7.6 7.7,3.5 11.1,12.5 7.7,20.2 -0.9,2 -88.9,201.3 -13.6,360.2 40.2,84.9 120.2,144 237.5,175.7 172.9,46.6 320.4,0.6 438.4,-136.7 89.2,-104 127.3,-223.9 127.7,-225.1 2.5,-8 11,-12.5 19.1,-10 8,2.5 12.5,11.1 10,19.1 -1.6,5.1 -40,126.4 -133.1,235.1 -83.9,98.1 -228.7,202.1 -446.8,152.8 -7.6,-1.7 -15.4,-3.6 -23.2,-5.8 -126.5,-34.1 -213,-98.8 -257.2,-192.2 -81.3,-171.8 9.4,-377 13.3,-385.7"
         style="fill:#3675c1;fill-opacity:1;fill-rule:nonzero;stroke:none"
         id="path156" /><path
         d="m 21047.5,8586.7 634,-2805.9 165.8,37.5 -728,2787.4 -71.8,-19"
         style="fill:#5b8ed8;fill-opacity:1;fill-rule:nonzero;stroke:none"
         id="path158" /><path
         d="m 16786.8,10307.1 c 0,0 -314,87.6 -367.6,86.4 -53.7,-1.1 -244.3,-70.4 -247.5,-85.5 -3.1,-15 5.1,-27.7 37.3,-31.4 32.2,-3.7 139.2,4.9 131.8,-7.7 -7.4,-12.5 -316.4,-58.3 -322.7,-119.7 -6.2,-61.5 156.1,-183.9 297.4,-198.3 141.4,-14.4 427.8,137.1 451.8,138.1 203.5,8.1 19.5,218.1 19.5,218.1"
         style="fill:#ed975d;fill-opacity:1;fill-rule:nonzero;stroke:none"
         id="path160" /><path
         d="m 20016,12539.9 c 0,0 -298.1,-353.6 -677.7,-205.7 0,0 -81.6,197.5 -82.8,343.1 -0.1,17.9 -0.3,35.3 -0.6,51.8 -2,164 -7.6,255.9 -7.6,255.9 0,0 0.1,0.1 0.4,0.1 17.3,7.2 580.3,238.3 579.8,219.2 -9.6,-443.4 188.5,-664.4 188.5,-664.4"
         style="fill:#ffb27d;fill-opacity:1;fill-rule:nonzero;stroke:none"
         id="path162" /><path
         d="m 19771,13098.5 c -54.3,-100.6 -240.6,-297.5 -516.1,-369.4 -2,164 -7.6,255.9 -7.6,255.9 0,0 0.1,0.1 0.4,0.1 15.6,4.2 539.4,143.1 523.3,113.4"
         style="fill:#ed975d;fill-opacity:1;fill-rule:nonzero;stroke:none"
         id="path164" /><path
         d="m 19129.4,13002.1 c 0,0 633.2,-148.9 719.8,246.8 86.6,395.7 226.7,643 -173.9,754.8 -400.6,111.8 -512.4,-22 -573.5,-147 -61,-125.1 -134.8,-805.7 27.6,-854.6"
         style="fill:#ffb27d;fill-opacity:1;fill-rule:nonzero;stroke:none"
         id="path166" /><path
         d="m 19827.5,13141.1 c 8.7,-5.5 144.9,-47.4 402.9,466.6 40.5,80.7 68.1,255.2 -26.3,409.4 -94.4,154.3 -429.2,275.5 -707.3,328.3 -278.1,52.7 -344.9,-103.7 -410.4,-261 -68.7,-165.1 -267.3,-301.1 -267.3,-301.1 239.8,-133.9 528.7,57.7 628.8,26.2 100.1,-31.6 135.4,-189.3 142.9,-239.8 7.5,-50.6 19.1,-92.6 144.9,-47.4 125.9,45.1 56.9,-178.4 36.8,-221.1 0,0 -17.1,-113.8 55,-160.1"
         style="fill:#a9453d;fill-opacity:1;fill-rule:nonzero;stroke:none"
         id="path168" /><path
         d="m 21458.5,3260.1 h 383.4 c 80.4,0 169.7,81.6 192,230.9 22.4,149.4 187.6,230.8 223.4,353 35.7,122.2 -147.5,294.3 -147.5,294.3 l -30.6,39.9 -31.8,41.5 -303.7,-72.3 c 0,0 -7.5,-73.3 -12.2,-166.7 -3.3,-67.4 -5,-145.3 -1.2,-213.6 8.9,-163 -45.1,-338.4 -187.9,-370.2 -143,-31.7 -83.9,-136.8 -83.9,-136.8"
         style="fill:#2c3a64;fill-opacity:1;fill-rule:nonzero;stroke:none"
         id="path170" /><path
         d="m 18789.6,3256.4 h 1016.3 c 9.7,2 17.1,4.2 21.5,6.5 67.9,34.9 46.6,302.4 38.5,385 -1.6,15.3 -2.7,24.3 -2.7,24.3 0,0 -357.3,294.3 -406.5,68.9 -1.6,-7 -3.4,-13.9 -5.3,-20.7 v -0.1 c -62,-210.8 -339.3,-306.6 -499.5,-333.3 -122.4,-20.5 -154.1,-93.9 -162.3,-130.6"
         style="fill:#2c3a64;fill-opacity:1;fill-rule:nonzero;stroke:none"
         id="path172" /><path
         d="m 18994.5,9133.1 c 0,0 54.2,-677.1 118,-1491 86.7,-1105.7 191,-2463.7 201.3,-2721 17.8,-446.8 89.4,-1161.4 89.4,-1161.4 0,0 169.6,-169.8 509.2,-98.2 0,0 302.5,1020.1 389,2099.5 1.3,17.7 2.6,35.5 4,53.3 80.4,1098.8 205.4,3412.6 205.4,3412.6 l -1516.3,-93.8"
         style="fill:#ee9849;fill-opacity:1;fill-rule:nonzero;stroke:none"
         id="path174" /><path
         d="m 18994.5,9133.1 c 0,0 54.2,-677.1 118,-1491 L 20301.4,5761 c 1.3,17.7 2.6,35.5 4,53.3 80.4,1098.8 205.4,3412.6 205.4,3412.6 l -1516.3,-93.8"
         style="fill:#e58638;fill-opacity:1;fill-rule:nonzero;stroke:none"
         id="path176" /><path
         d="m 19242.3,9052.7 c 0,0 978.2,-2452.2 1621.4,-3604.6 643.2,-1152.4 844.2,-1474 844.2,-1474 0,0 368.5,147.4 402,247.9 0,0 -246,2224.8 -676.7,2767.1 -243.4,306.4 -529.3,1226.1 -542.7,1547.7 -13.4,321.6 -87.1,958.1 -87.1,958.1 l -1561.1,-442.2"
         style="fill:#ee9849;fill-opacity:1;fill-rule:nonzero;stroke:none"
         id="path178" /><path
         d="m 18788,11078.8 c 3.8,-209.7 15.9,-445.4 32.4,-684.9 1,-14.1 2,-28.3 3,-42.5 10.5,-148.4 21.9,-297 35,-442 5.2,-58.1 10.8,-115.6 16.6,-172 l 0.9,-7.6 c 0.5,-21.1 3,-44 5.4,-65 53.4,-542.9 109.4,-971.9 119.8,-978.5 12.4,-8.3 26.4,-12.4 41.7,-10.6 142.4,17.8 567.2,-14.5 915.1,61.2 293.5,61.9 546.2,179.3 814,337.6 35.6,21 116.6,76.6 110,118.2 -6.5,45.7 -18.4,111.8 -33.6,194.8 -52.8,288.9 -143.9,785.7 -175,1367.1 -6,108.3 -14.8,215.3 -26.2,320.5 -29.9,273.9 -77.7,534.2 -141.9,765.3 -119.2,429.4 -294.5,758.3 -514.4,886.9 -28.7,16.1 -183.3,-82.3 -325.2,-173.4 -131.1,-84 -269.2,-107.2 -403.4,-95.5 l -118.1,-130.7 c -143.1,-166.3 -295.4,-387.7 -337,-702.5 -3.2,-23.2 -5.8,-47.9 -8.1,-74.2 -11.5,-128.2 -14.3,-290.5 -11,-472.2"
         style="fill:#2a4e96;fill-opacity:1;fill-rule:nonzero;stroke:none"
         id="path180" /><path
         d="m 18788,11078.8 c 3.8,-209.7 15.9,-445.4 32.4,-684.9 1,-14.1 2,-28.3 3,-42.5 813.3,509.1 938.7,1440.7 938.7,1440.7 -400.2,-17.5 -718.1,-109.5 -963.1,-241.1 -11.5,-128.2 -14.3,-290.5 -11,-472.2"
         style="fill:#1e3d70;fill-opacity:1;fill-rule:nonzero;stroke:none"
         id="path182" /><path
         d="m 16699.9,10215.9 c -30.5,117 27.2,148.2 27.2,148.2 0,0 1164.5,444.4 1260.9,495.9 96.4,51.4 801.7,1127.1 801.7,1127.1 0,0 264.9,441.8 555.5,409.7 252.6,-27.9 381,-196.8 446.1,-368.4 77.5,-204.5 19.9,-435.7 -142.3,-582.5 -364,-329.4 -1094.3,-980.9 -1277.6,-1074.1 -408,-207.5 -1589.6,-308.5 -1589.6,-308.5 0,0 -58,60.7 -81.9,152.6"
         style="fill:#2a4e96;fill-opacity:1;fill-rule:nonzero;stroke:none"
         id="path184" /><path
         d="m 21803.4,9226.9 c -98.4,11.3 -208.1,-35.5 -205,-60.3 3,-24.9 37.6,-225 268.5,-142.5 l 83.3,55.7 c 0,0 -48.5,135.8 -146.8,147.1"
         style="fill:#ed975d;fill-opacity:1;fill-rule:nonzero;stroke:none"
         id="path186" /><path
         d="M 27920.1,3169.8 H 2079.87 c -20.72,0 -37.69,16.9 -37.69,37.7 v 37.8 c 0,20.8 16.97,37.7 37.69,37.7 H 27920.1 c 20.8,0 37.7,-16.9 37.7,-37.7 v -37.8 c 0,-20.8 -16.9,-37.7 -37.7,-37.7"
         style="fill:#2e3552;fill-opacity:1;fill-rule:nonzero;stroke:none"
         id="path188" /></g></g></svg>
