<?xml version="1.0" encoding="UTF-8" standalone="no"?>
<svg
   xmlns:dc="http://purl.org/dc/elements/1.1/"
   xmlns:cc="http://creativecommons.org/ns#"
   xmlns:rdf="http://www.w3.org/1999/02/22-rdf-syntax-ns#"
   xmlns:svg="http://www.w3.org/2000/svg"
   xmlns="http://www.w3.org/2000/svg"
   xmlns:sodipodi="http://sodipodi.sourceforge.net/DTD/sodipodi-0.dtd"
   xmlns:inkscape="http://www.inkscape.org/namespaces/inkscape"
   version="1.1"
   id="svg2"
   xml:space="preserve"
   width="4266.6665"
   height="2666.6667"
   viewBox="0 0 4266.6665 2666.6667"
   sodipodi:docname="10188.eps"><metadata
     id="metadata8"><rdf:RDF><cc:Work
         rdf:about=""><dc:format>image/svg+xml</dc:format><dc:type
           rdf:resource="http://purl.org/dc/dcmitype/StillImage" /></cc:Work></rdf:RDF></metadata><defs
     id="defs6" /><sodipodi:namedview
     pagecolor="#ffffff"
     bordercolor="#666666"
     borderopacity="1"
     objecttolerance="10"
     gridtolerance="10"
     guidetolerance="10"
     inkscape:pageopacity="0"
     inkscape:pageshadow="2"
     inkscape:window-width="640"
     inkscape:window-height="480"
     id="namedview4" /><g
     id="g10"
     inkscape:groupmode="layer"
     inkscape:label="ink_ext_XXXXXX"
     transform="matrix(1.3333333,0,0,-1.3333333,0,2666.6667)"><g
       id="g12"
       transform="scale(0.1)"><path
         d="M 0,0 H 32000 V 20000 H 0 Z"
         style="fill:#ffffff;fill-opacity:1;fill-rule:nonzero;stroke:none"
         id="path14" /><path
         d="m 30193.2,2934.3 c 0,0 -28114.28,-13.4 -28380,-13.4 -146.23,0 -1281.704,6433.7 376.13,10028.3 78.51,170.3 163.36,334.2 254.92,490.7 43.87,75.1 89.19,148.6 136.22,220.1 140.69,214.5 289.96,415.3 446.34,603.1 77.2,93.1 156.37,182.8 237,269.5 2321.02,2494 5964.98,2442.3 7249.69,1898.9 1419.7,-600.5 2333.7,812.2 4425.9,831.4 151.4,1.4 296.4,-1.5 435.8,-8 37,-1.7 73.5,-3.9 109.7,-6.1 2960.6,-187.7 3265.8,-2131 5672.4,-1956.5 2547,184.7 4638,1323.9 7602.4,-1216.5 2964.5,-2540.5 1433.5,-11141.5 1433.5,-11141.5"
         style="fill:#ebf3fa;fill-opacity:1;fill-rule:nonzero;stroke:none"
         id="path16" /><path
         d="M 7905.32,14532.6 V 2953.1 H 2189.33 v 9996.1 c 78.52,170.3 163.36,334.2 254.92,490.7 43.87,75.1 89.19,148.6 136.22,220.1 140.7,214.5 289.96,415.3 446.34,603.1 77.2,93.1 156.37,182.8 237,269.5 h 4641.51"
         style="fill:#c8dbf4;fill-opacity:1;fill-rule:nonzero;stroke:none"
         id="path18" /><path
         d="M 7625.77,14263.1 V 2955.4 H 2444.25 v 10484.5 c 43.87,75.1 89.19,148.6 136.22,220.1 140.7,214.5 289.96,415.3 446.34,603.1 h 4598.96"
         style="fill:#dfebfd;fill-opacity:1;fill-rule:nonzero;stroke:none"
         id="path20" /><path
         d="m 6888.03,8470.3 c 0,95.1 77.04,172.1 172.08,172.1 95.03,0 172.07,-77 172.07,-172.1 0,-95 -77.04,-172.1 -172.07,-172.1 -95.04,0 -172.08,77.1 -172.08,172.1"
         style="fill:#c8dbf4;fill-opacity:1;fill-rule:nonzero;stroke:none"
         id="path22" /><path
         d="m 3007.08,12077.8 h 4163.81 v 1582.8 H 3007.08 Z m 4203.34,-39.5 H 2967.56 v 1661.9 h 4242.86 v -1661.9"
         style="fill:#c8dbf4;fill-opacity:1;fill-rule:nonzero;stroke:none"
         id="path24" /><path
         d="m 3007.08,10013 h 4163.81 v 1582.8 H 3007.08 Z m 4203.34,-39.5 H 2967.56 v 1661.9 H 7210.42 V 9973.5"
         style="fill:#c8dbf4;fill-opacity:1;fill-rule:nonzero;stroke:none"
         id="path26" /><path
         d="M 3007.08,3560.5 H 7170.89 V 7919.4 H 3007.08 Z M 7210.42,3521 H 2967.56 V 7958.9 H 7210.42 V 3521"
         style="fill:#c8dbf4;fill-opacity:1;fill-rule:nonzero;stroke:none"
         id="path28" /><path
         d="m 11950.3,12841.9 c 0,0 917,-1602.5 733,-2155.1 -183.9,-552.6 -799.2,-587.9 -799.2,-587.9 l 66.2,2743"
         style="fill:#f99746;fill-opacity:1;fill-rule:nonzero;stroke:none"
         id="path30" /><path
         d="m 12425.8,2980.2 h -1280.2 c -91.7,62.2 24.7,670.4 24.7,670.4 0,0 349.4,132.6 409.8,-137 60.5,-269.4 445,-355.1 648.5,-388 139.3,-22.6 183.3,-99.1 197.2,-145.4"
         style="fill:#233862;fill-opacity:1;fill-rule:nonzero;stroke:none"
         id="path32" /><path
         d="M 10527.1,2980.2 H 9246.9 c -91.72,62.2 24.75,670.4 24.75,670.4 0,0 349.4,132.6 409.75,-137 60.53,-269.4 445,-355.1 648.5,-388 139.3,-22.6 183.3,-99.1 197.2,-145.4"
         style="fill:#233862;fill-opacity:1;fill-rule:nonzero;stroke:none"
         id="path34" /><path
         d="m 12081.4,9184.4 c 0,0 -57.6,-717.9 -125.2,-1580.9 -91.9,-1172.3 -339.9,-4078.9 -339.9,-4078.9 0,0 -162.5,-138.6 -522.5,-62.8 0,0 -306.5,1002.7 -398.1,2147.2 -1.5,18.7 -2.9,37.6 -4.3,56.5 -85.2,1165.1 -217.8,3618.3 -217.8,3618.3 l 1607.8,-99.4"
         style="fill:#2b478b;fill-opacity:1;fill-rule:nonzero;stroke:none"
         id="path36" /><path
         d="m 12101,9432.5 c 0,0 -77.2,-966 -144.8,-1829 L 10695.7,5609 c -1.5,18.7 -2.9,37.6 -4.3,56.5 -85.2,1165.1 -217.8,3618.3 -217.8,3618.3 l 1627.4,148.7"
         style="fill:#233862;fill-opacity:1;fill-rule:nonzero;stroke:none"
         id="path38" /><path
         d="m 11733.6,9432.5 c 0,0 -914.2,-2275.7 -1206.5,-3138.3 -208.2,-614.5 -795.27,-2770 -795.27,-2770 0,0 -255.31,-77.7 -469.87,72.5 0,0 -218.43,2202.2 222.78,2823.2 234.09,329.4 58.17,3424.7 1007.26,3451.2 949.1,26.5 1241.6,-438.6 1241.6,-438.6"
         style="fill:#2b478b;fill-opacity:1;fill-rule:nonzero;stroke:none"
         id="path40" /><path
         d="m 11325.2,12787.2 c -139.5,-73.5 -275.7,-78.1 -393.8,-53 -108,22.7 -200.8,70.4 -266.8,112.6 -67.8,43.3 -107.7,81.1 -107.7,81.1 0,0 4.7,6.8 12.7,20.2 41.2,70.5 166.2,324.1 110.6,731.5 -0.7,5.3 39.6,-2.3 100.6,-16.7 181.4,-42.9 546.1,-146.4 562.2,-151 h 0.6 c 0,0 4.5,-85.6 19.5,-239.2 1.3,-13.6 2.6,-27.7 4.1,-42.4 1.9,-18 3.7,-37.1 6,-56.7 16.9,-159.7 -48,-386.4 -48,-386.4"
         style="fill:#ffb27d;fill-opacity:1;fill-rule:nonzero;stroke:none"
         id="path42" /><path
         d="m 11363.1,13272.7 c -270.8,-62.1 -675,337.7 -675,337.7 29.6,22 60.6,39.4 92.7,52.5 181.4,-42.9 546.1,-146.4 562.2,-151 h 0.6 c 0,0 4.5,-85.6 19.5,-239.2"
         style="fill:#ed975d;fill-opacity:1;fill-rule:nonzero;stroke:none"
         id="path44" /><path
         d="m 12224.3,9815.7 c -19.7,-260.8 -21.2,-403.1 -195.7,-447.6 0,0 -537,-189.1 -1178.9,-194.2 -125.5,-0.9 -303.3,23.6 -450.6,48.3 -150.5,25.4 -269.7,51.1 -269.7,51.1 -129.1,29.8 -271.56,109.6 -252.42,256.7 10.08,78.4 17.43,179 22.42,295.5 0.34,7.4 0.68,14.9 1.02,22.5 14.15,341 11.88,810.7 13.58,1260.3 1.25,276.2 3.97,544.7 13.26,771.1 0,0 -126.71,889.6 13.92,1035.6 164.82,170.7 697.42,220.8 706.72,222.3 0,0 420.9,-224.6 727.2,-52.8 0,0 446.7,-106.7 575.2,-242.6 44.4,-46.7 221.4,-333.9 226.2,-649.3 6.7,-439.7 -10.5,-939.1 -10.5,-939.2 4.6,-71.5 12.3,-163.5 20.7,-268.6 9,-112 18.9,-238.5 27.3,-370.4 4.2,-66.5 8.1,-134.3 11.2,-202.1 9.5,-209.4 12.5,-420 -0.9,-596.6"
         style="fill:#f99746;fill-opacity:1;fill-rule:nonzero;stroke:none"
         id="path46" /><path
         d="m 11455.1,13533.6 c 0,0 -111.3,-40 -253.3,-59.1 -207.6,-28 -480.6,-11.5 -566.4,239.7 -144.4,422.8 -328.9,676.3 96.1,849 227.6,92.4 373.2,97.3 472,62 86,-30.4 136.6,-91.2 175,-151.4 82.5,-129.4 248.6,-866.2 76.6,-940.2"
         style="fill:#ffb27d;fill-opacity:1;fill-rule:nonzero;stroke:none"
         id="path48" /><path
         d="m 10979.4,13877.2 c 0,0 358.4,187.2 518.2,191.8 0,0 180.4,-438.4 -31.9,-554.8 -173.5,-73.1 -447.5,-16 -579.9,93.6 0,0 98.1,111.9 93.6,269.4"
         style="fill:#ffffff;fill-opacity:1;fill-rule:nonzero;stroke:none"
         id="path50" /><path
         d="m 10984,13862.8 -219.2,196.5 9.1,10.2 222.7,-193.6 -12.6,-13.1"
         style="fill:#ffffff;fill-opacity:1;fill-rule:nonzero;stroke:none"
         id="path52" /><path
         d="m 10886.2,13608.5 -163,179.9 10.5,8.8 171.3,-181 -18.8,-7.7"
         style="fill:#ffffff;fill-opacity:1;fill-rule:nonzero;stroke:none"
         id="path54" /><path
         d="m 11410.7,14729.2 c 96,-23.4 139.2,-174.6 47.8,-237.5 -163.9,-112.8 -364.1,-68.5 -437.9,-101.3 -105.7,-47 -124.7,-224.3 -126.6,-280.6 -1.9,-56.4 -9.3,-104 -152.9,-70.2 -23.5,5.5 -40.5,3.9 -52.1,-3.1 -59.6,-35.4 16.5,-206.6 39.5,-243.7 0,0 33,-122.7 -40.3,-182.4 -8.9,-7.2 -152.9,-70.1 -500,461 -54.5,83.4 -106.6,271.2 -22.3,452 84.1,180.8 344.3,404.8 656.6,404.8 247.1,0 385,-149.7 588.2,-199"
         style="fill:#163560;fill-opacity:1;fill-rule:nonzero;stroke:none"
         id="path56" /><path
         d="m 11148.4,10325.8 c 45.7,-85.7 10,-347 10,-347 0,0 -719.2,-133.6 -1277.44,-441.8 0.33,7.5 19.12,303.4 19.46,311 14.15,341 14.23,1833 15.92,2282.6 0,0 470.86,-149.5 337.86,-447.5 -88,-197.2 -109.5,-484 -59.3,-602.7 224.6,-531 911.4,-675.6 953.5,-754.6"
         style="fill:#ed7d2b;fill-opacity:1;fill-rule:nonzero;stroke:none"
         id="path58" /><path
         d="m 11894.6,12770.4 c -0.2,-4.8 -0.4,-7.3 -0.4,-7.3 0,0 -0.8,2.5 -2.3,7.1 -12.4,38.3 -73.1,227.4 -128.4,437.9 -76.4,291.3 -142.3,623.6 -55.6,654.3 164.4,58.3 194.7,-407.1 195.2,-750.5 0.3,-169.2 -6.7,-308.8 -8.5,-341.5"
         style="fill:#a8d29f;fill-opacity:1;fill-rule:nonzero;stroke:none"
         id="path60" /><path
         d="m 12055.5,13148.6 c -59.4,-131.8 -111,-242.7 -140.6,-309 -12.8,-29 -21.5,-49.5 -24.9,-59.6 2.9,16.4 10.6,60.4 21.7,123.1 v 0.1 c 16.6,93.8 40.7,229.4 67.2,376.6 64.2,357.7 142.4,784 160.7,845 32.1,107.5 180.5,336.3 280.4,137.2 64.9,-129.4 -185.5,-716.2 -364.5,-1113.4"
         style="fill:#a8d29f;fill-opacity:1;fill-rule:nonzero;stroke:none"
         id="path62" /><path
         d="m 12067.4,12960.6 c -61.4,-64.8 -113,-117.4 -141.8,-146.4 -15.7,-15.9 -24.7,-24.8 -24.7,-24.8 0,0 15.7,33.5 42.5,87.1 25.3,50.5 60.5,118.9 101.6,193.8 134.6,245.4 332.8,559.8 455.8,541.6 140.2,-20.7 -210.8,-416.4 -433.4,-651.3"
         style="fill:#a8d29f;fill-opacity:1;fill-rule:nonzero;stroke:none"
         id="path64" /><path
         d="m 11894.6,12770.4 c -0.9,0 -1.8,-0.1 -2.7,-0.2 -12.4,38.3 -73.1,227.4 -128.4,437.9 25.8,-38.6 72.4,-90.3 139.6,-96.2 0.3,-169.2 -6.7,-308.8 -8.5,-341.5"
         style="fill:#82b378;fill-opacity:1;fill-rule:nonzero;stroke:none"
         id="path66" /><path
         d="m 12055.5,13148.6 c -59.4,-131.8 -111,-242.7 -140.6,-309 -2.2,18.5 -3.2,40 -3.2,63.5 v 0.1 c 16.6,93.8 40.7,229.4 67.2,376.6 10.3,-51.4 31.9,-108.4 76.6,-131.2"
         style="fill:#82b378;fill-opacity:1;fill-rule:nonzero;stroke:none"
         id="path68" /><path
         d="m 12067.4,12960.6 c -61.4,-64.8 -113,-117.4 -141.8,-146.4 2.8,16.7 9.3,38.4 17.8,62.3 25.3,50.5 60.5,118.9 101.6,193.8 0.9,-31.4 5.4,-78.1 22.4,-109.7"
         style="fill:#82b378;fill-opacity:1;fill-rule:nonzero;stroke:none"
         id="path70" /><path
         d="m 11890,12779.9 c -0.8,-4.5 -1.3,-7 -1.3,-7 -0.6,0.4 -0.2,2.7 1.3,7"
         style="fill:#a8d29f;fill-opacity:1;fill-rule:nonzero;stroke:none"
         id="path72" /><path
         d="m 11972.4,12306.9 c -103,-291.8 -231.2,-610 -231.2,-610 l -289.8,86.9 c 0,0 34,216.1 83.7,456.6 58.1,280.3 91.3,563.2 210.4,636.8 32.8,20.3 68.2,29.7 102.8,32.2 17.5,1.4 34.9,0.8 51.9,-1.5 4,-0.5 8,-1.1 12,-1.8 10.1,-1.8 20,-4.2 29.6,-7 3.8,-1.1 7.5,-2.3 11.2,-3.6 12.8,-4.4 25.2,-9.6 37,-15.6 50.2,-25.5 90.6,-63.9 106.4,-105.4 47.6,-124.7 -46.1,-247.2 -124,-467.6"
         style="fill:#ea6c2d;fill-opacity:1;fill-rule:nonzero;stroke:none"
         id="path74" /><path
         d="m 11830.8,11949.4 c -76.1,-230.9 -98.7,-484.2 -67.4,-754.6 5.2,-45.1 30.3,-84.2 66.6,-108.2 16.3,-10.8 34.7,-18.5 54.7,-22.4 44.7,0.2 132.9,81.5 183.4,185.2 13.8,28.6 24.9,58.8 31.3,89.5 50.6,240 144.3,528.9 260.5,676.6 118.8,151 278.8,331.5 498.9,455.6 l 0.1,0.1 c 21.2,12.1 520.5,375.7 520.5,375.7 49.7,52.6 -9.2,111.4 -9.2,111.4 0,0 -47.4,-41.6 -192,-124.9 -144.7,-83.3 -398.7,14.3 -398.8,14.4 -71.2,32.1 -155.7,28.9 -225.6,-13.6 -107.9,-65.5 -251.6,-168.8 -387.9,-317.5 -153.4,-167.4 -266.1,-358.2 -335.1,-567.3"
         style="fill:#ffb93e;fill-opacity:1;fill-rule:nonzero;stroke:none"
         id="path76" /><path
         d="m 12099.4,11338.9 c 50.6,240 144.3,528.9 260.5,676.6 118.8,151 278.8,331.5 498.9,455.6 l 0.1,0.1 c 3.8,2.8 152.7,112.6 -12.3,212 -161.5,97.2 -820.6,-627.5 -778.5,-1433.8 13.8,28.6 24.9,58.8 31.3,89.5"
         style="fill:#ffa412;fill-opacity:1;fill-rule:nonzero;stroke:none"
         id="path78" /><path
         d="m 11495.1,12277.3 c -20.9,-32.7 -46.5,-64.4 -76.7,-94.2 -114.4,-112.7 -294.1,-196.3 -525.3,-194.1 0,0 -97.1,92.5 -144.1,210.3 v 0 c -32.6,81.7 -56.5,202 0,291.3 36.3,57.5 83.1,84.7 130.5,99 80.6,24.5 162.9,11.9 198.9,47.8 35.5,35.3 86,65.9 141.5,83.5 9,2.9 18.2,5.4 27.5,7.5 h 0.1 c 3.8,0.9 7.7,1.8 11.6,2.5 l 0.2,0.1 c 85.5,16.7 176.8,0.3 240.3,-75.9 14.8,-17.7 28.2,-39 39.5,-64.7 40.7,-91.5 23.2,-207.5 -44,-313.1"
         style="fill:#a8d29f;fill-opacity:1;fill-rule:nonzero;stroke:none"
         id="path80" /><path
         d="m 10822.5,12503.8 c 0,0 -76.3,-59.9 -52.9,-126.2 23.4,-66.3 83.7,-35.7 102.5,10.2 18.9,46 0.6,138.2 -49.6,116"
         style="fill:#d1f2c9;fill-opacity:1;fill-rule:nonzero;stroke:none"
         id="path82" /><path
         d="m 11499.6,12655.1 c 14.8,-17.7 28.1,-39.1 39.5,-64.7 40.7,-91.5 96.6,-334 29.4,-439.7 l -90.2,-82.5 c -114.5,-112.7 -354,-81.4 -585.2,-79.2 0,0 -97.1,92.5 -144.1,210.3 v 0 c 0,0 286,-113.2 555.5,123.1 122.3,107.3 174.6,230.4 195.1,332.7"
         style="fill:#95c38b;fill-opacity:1;fill-rule:nonzero;stroke:none"
         id="path84" /><path
         d="m 11063.4,12775.7 c -47.3,28.2 -95,-11.3 -150.5,-33 -55.5,-21.7 -162.2,-21.3 -162.2,-21.3 0,0 43.9,63.2 115.8,126 72,62.8 196.9,-71.7 196.9,-71.7"
         style="fill:#a8d29f;fill-opacity:1;fill-rule:nonzero;stroke:none"
         id="path86" /><path
         d="m 11063.4,12775.7 c -44.4,36.5 -126.5,57.4 -166.5,41 -40.1,-16.4 -146.2,-95.3 -146.2,-95.3 0,0 43.9,63.2 115.8,126 72,62.8 196.9,-71.7 196.9,-71.7"
         style="fill:#82b378;fill-opacity:1;fill-rule:nonzero;stroke:none"
         id="path88" /><path
         d="m 11078.4,12637.4 c 35.5,35.3 86,65.9 141.5,83.5 -94.3,-35.4 -146.4,-154.9 -182.1,-141.1 -38.4,14.9 -153.9,10.1 -158.3,9.8 80.6,24.5 162.9,11.9 198.9,47.8"
         style="fill:#95c38b;fill-opacity:1;fill-rule:nonzero;stroke:none"
         id="path90" /><path
         d="m 11259.1,12730.9 c -3,-0.8 -6.8,-1.6 -11.6,-2.5 3.8,0.9 7.7,1.8 11.6,2.5"
         style="fill:#95c38b;fill-opacity:1;fill-rule:nonzero;stroke:none"
         id="path92" /><path
         d="m 11044.4,12582.2 v 0 c -30.2,66.8 -13.9,149.7 5.2,207.5 15.1,46 44.2,108.1 58.5,137.6 3,6.2 12,5.6 14.2,-1 l 5.7,-17.4 c 5.8,-17.5 3.7,-36.6 -5.8,-52.3 -29.2,-48.3 -88,-161.3 -61.5,-254.2 3,-10.5 -10.9,-32.1 -16.3,-20.2"
         style="fill:#82b378;fill-opacity:1;fill-rule:nonzero;stroke:none"
         id="path94" /><path
         d="m 11667,12281 -9.4,3.8 c 41.6,62 106.2,104.5 157.1,124.1 44.6,17.2 80.2,22.9 93,24.5 3.1,0.5 6.1,-0.7 8.2,-3.1 l 7.9,-9.2 c 3.9,-4.5 1.2,-11.8 -4.8,-12.7 -45.5,-6.5 -189.1,-33.8 -252,-127.4"
         style="fill:#2b478b;fill-opacity:1;fill-rule:nonzero;stroke:none"
         id="path96" /><path
         d="m 11489.8,12263.3 c 47.7,119.3 115,92.4 197.9,59.2 82.9,-33.2 150.2,-60.1 102.4,-179.4 -34.2,-85.5 -129.2,-128 -212.2,-94.8 -82.9,33.2 -122.4,129.5 -88.1,215"
         style="fill:#f99746;fill-opacity:1;fill-rule:nonzero;stroke:none"
         id="path98" /><path
         d="m 11540.1,12288 c 3,21.4 37.4,43.9 58.8,40.9 21.4,-3 31.3,-26.9 28.3,-48.3 -3,-21.4 -32.4,-39.8 -53.8,-36.8 -21.4,3 -36.3,22.8 -33.3,44.2"
         style="fill:#ffae71;fill-opacity:1;fill-rule:nonzero;stroke:none"
         id="path100" /><path
         d="m 12641.1,12233.3 256.1,-1824.7 c 31.8,-226.3 -143.9,-428.4 -372.4,-428.4 h -385.9 c -194.9,0 -346.6,169.2 -325.4,363 l 216.7,1697.2 610.9,192.9"
         style="fill:#fcecdb;fill-opacity:1;fill-rule:nonzero;stroke:none"
         id="path102" /><path
         d="m 11295.9,12233.3 c 0,0 620.9,-211 1345.2,0 L 12427.7,9982.2 H 11076 l 219.9,2251.1"
         style="fill:#fcecdb;fill-opacity:1;fill-rule:nonzero;stroke:none"
         id="path104" /><path
         d="m 11295.9,12233.3 256.2,-1824.7 c 31.7,-226.3 -144,-428.4 -372.5,-428.4 h -385.9 c -194.9,0 -346.6,169.2 -325.4,363 l 183.5,1890.1 c 0,0 90.4,-17.6 310.3,-17.6 217.7,0 333.8,17.6 333.8,17.6"
         style="fill:#efcbab;fill-opacity:1;fill-rule:nonzero;stroke:none"
         id="path106" /><path
         d="m 12444.7,12029.8 c 0,26.6 -21.5,48.1 -48.1,48.1 -26.5,0 -48.1,-21.5 -48.1,-48.1 0,-17.7 9.7,-33.2 24,-41.5 20.4,-161.9 -11.8,-294.2 -92,-375.2 -73,-73.7 -183.7,-101 -320.1,-79 -119.9,19.3 -198.9,152.1 -244,260 -32.4,77.6 -52.4,154.1 -62.7,199.4 10.1,8.9 16.6,21.8 16.6,36.3 0,26.6 -21.6,48.1 -48.1,48.1 -26.6,0 -48.1,-21.5 -48.1,-48.1 0,-17.9 9.8,-33.5 24.3,-41.7 25.9,-118.7 121.6,-470.9 353.3,-508.3 33.7,-5.4 66.1,-8.1 97,-8.1 111.1,0 203.6,34.8 270.8,102.7 92.1,92.9 129.7,240.4 107.8,418.4 10.6,8.9 17.4,22.1 17.4,37"
         style="fill:#ed7d2b;fill-opacity:1;fill-rule:nonzero;stroke:none"
         id="path108" /><path
         d="m 10997.9,10127.2 c 0,0 343.1,-226.4 475.5,-240.9 90.1,-9.9 446,4.7 448,49.6 2.8,63.6 -217.4,130.7 -274.4,156.2 -57.1,25.5 -101.7,55 -101.3,79.6 0.4,24.6 220.6,-56.9 196.8,-3.2 -23.7,53.7 -227.2,147.2 -276.3,156.2 -49.2,9 -207.7,-44.8 -269.3,-16.3 -61.6,28.5 -199,-181.2 -199,-181.2"
         style="fill:#ffb27d;fill-opacity:1;fill-rule:nonzero;stroke:none"
         id="path110" /><path
         d="m 10060.1,12997.7 c 0,0 -234.98,-99.3 -514.29,-621.2 -279.32,-521.9 -543.52,-1627 -430.29,-1806.7 113.23,-179.7 1066.88,-591 1898.08,-481.4 0,0 206.2,187.8 164.7,260.2 0,0 -1366.98,556 -1364.7,665.6 1.42,67.9 727.4,984.7 755.7,1276.2 28.3,291.6 -509.2,707.3 -509.2,707.3"
         style="fill:#f99746;fill-opacity:1;fill-rule:nonzero;stroke:none"
         id="path112" /><path
         d="m 24718.9,12366.1 h -1524.2 c -70,0 -127.2,57.2 -127.2,127.2 v 1471.1 c 0,70 57.2,127.2 127.2,127.2 h 1524.2 c 69.9,0 127.2,-57.2 127.2,-127.2 v -1471.1 c 0,-70 -57.3,-127.2 -127.2,-127.2"
         style="fill:#c0d8fb;fill-opacity:1;fill-rule:nonzero;stroke:none"
         id="path114" /><path
         d="m 24652.8,12440.8 h -1392.1 c -63.9,0 -116.2,52.3 -116.2,116.2 v 1343.7 c 0,63.9 52.3,116.2 116.2,116.2 h 1392.1 c 63.9,0 116.2,-52.3 116.2,-116.2 V 12557 c 0,-63.9 -52.3,-116.2 -116.2,-116.2"
         style="fill:#dfebfd;fill-opacity:1;fill-rule:nonzero;stroke:none"
         id="path116" /><path
         d="m 23919.9,13859.4 c 0,20.3 16.5,36.8 36.9,36.8 20.3,0 36.8,-16.5 36.8,-36.8 0,-20.4 -16.5,-36.9 -36.8,-36.9 -20.4,0 -36.9,16.5 -36.9,36.9"
         style="fill:#b7d3f3;fill-opacity:1;fill-rule:nonzero;stroke:none"
         id="path118" /><path
         d="m 24217.2,13807.3 c 9.9,17.8 32.3,24.2 50.1,14.3 17.8,-9.9 24.2,-32.3 14.3,-50.1 -9.9,-17.8 -32.3,-24.2 -50.1,-14.3 -17.8,9.9 -24.2,32.3 -14.3,50.1"
         style="fill:#b7d3f3;fill-opacity:1;fill-rule:nonzero;stroke:none"
         id="path120" /><path
         d="m 24471.9,13604.9 c 17.1,11.1 39.9,6.2 51,-10.9 11,-17.1 6.1,-39.9 -11,-51 -17.1,-11 -39.9,-6.1 -51,11 -11,17.1 -6.1,39.9 11,50.9"
         style="fill:#b7d3f3;fill-opacity:1;fill-rule:nonzero;stroke:none"
         id="path122" /><path
         d="m 24598.1,13291.8 c 20.3,0 36.8,-16.5 36.8,-36.9 0,-20.3 -16.5,-36.8 -36.8,-36.8 -20.4,0 -36.9,16.5 -36.9,36.8 0,20.4 16.5,36.9 36.9,36.9"
         style="fill:#b7d3f3;fill-opacity:1;fill-rule:nonzero;stroke:none"
         id="path124" /><path
         d="m 24533.7,12928.3 c 14.3,-14.4 14.3,-37.7 0,-52.1 -14.4,-14.4 -37.8,-14.4 -52.1,0 -14.4,14.4 -14.4,37.7 0,52.1 14.3,14.4 37.7,14.4 52.1,0"
         style="fill:#b7d3f3;fill-opacity:1;fill-rule:nonzero;stroke:none"
         id="path126" /><path
         d="m 24302.3,12696.3 c 14.4,-14.4 14.4,-37.7 0,-52.1 -14.4,-14.4 -37.7,-14.4 -52.1,0 -14.4,14.4 -14.4,37.7 0,52.1 14.4,14.4 37.7,14.4 52.1,0"
         style="fill:#b7d3f3;fill-opacity:1;fill-rule:nonzero;stroke:none"
         id="path128" /><path
         d="m 23919.9,12576.8 c 0,20.3 16.5,36.8 36.9,36.8 20.3,0 36.8,-16.5 36.8,-36.8 0,-20.4 -16.5,-36.9 -36.8,-36.9 -20.4,0 -36.9,16.5 -36.9,36.9"
         style="fill:#b7d3f3;fill-opacity:1;fill-rule:nonzero;stroke:none"
         id="path130" /><path
         d="m 23695.2,13807.3 c -9.9,17.8 -32.4,24.2 -50.2,14.3 -17.7,-9.9 -24.1,-32.3 -14.3,-50.1 9.9,-17.8 32.4,-24.2 50.1,-14.3 17.8,9.9 24.2,32.3 14.4,50.1"
         style="fill:#b7d3f3;fill-opacity:1;fill-rule:nonzero;stroke:none"
         id="path132" /><path
         d="m 23440.5,13604.9 c -17.1,11.1 -39.9,6.2 -51,-10.9 -11,-17.1 -6.1,-39.9 11,-51 17.1,-11 39.9,-6.1 50.9,11 11.1,17.1 6.2,39.9 -10.9,50.9"
         style="fill:#b7d3f3;fill-opacity:1;fill-rule:nonzero;stroke:none"
         id="path134" /><path
         d="m 23314.3,13291.8 c -20.4,0 -36.8,-16.5 -36.8,-36.9 0,-20.3 16.4,-36.8 36.8,-36.8 20.3,0 36.8,16.5 36.8,36.8 0,20.4 -16.5,36.9 -36.8,36.9"
         style="fill:#b7d3f3;fill-opacity:1;fill-rule:nonzero;stroke:none"
         id="path136" /><path
         d="m 23378.7,12928.3 c -14.4,-14.4 -14.4,-37.7 0,-52.1 14.4,-14.4 37.7,-14.4 52.1,0 14.4,14.4 14.4,37.7 0,52.1 -14.4,14.4 -37.7,14.4 -52.1,0"
         style="fill:#b7d3f3;fill-opacity:1;fill-rule:nonzero;stroke:none"
         id="path138" /><path
         d="m 23610.1,12696.3 c -14.4,-14.4 -14.4,-37.7 0,-52.1 14.4,-14.4 37.7,-14.4 52.1,0 14.4,14.4 14.4,37.7 0,52.1 -14.4,14.4 -37.7,14.4 -52.1,0"
         style="fill:#b7d3f3;fill-opacity:1;fill-rule:nonzero;stroke:none"
         id="path140" /><path
         d="m 23946.8,13254.9 c 0,20.4 16.5,36.9 36.9,36.9 20.3,0 36.8,-16.5 36.8,-36.9 0,-20.3 -16.5,-36.8 -36.8,-36.8 -20.4,0 -36.9,16.5 -36.9,36.8"
         style="fill:#b7d3f3;fill-opacity:1;fill-rule:nonzero;stroke:none"
         id="path142" /><path
         d="m 23988.7,13254.9 h -10 v 460.3 h 10 v -460.3"
         style="fill:#b7d3f3;fill-opacity:1;fill-rule:nonzero;stroke:none"
         id="path144" /><path
         d="m 23988.4,13243.7 -18.7,23.7 244,191.6 18.7,-23.8 -244,-191.5"
         style="fill:#b7d3f3;fill-opacity:1;fill-rule:nonzero;stroke:none"
         id="path146" /><path
         d="m 20586.4,6396.8 c -668.7,9.5 -1535.7,18.4 -2424.5,18.4 -495.6,0 -997.8,-2.8 -1476.5,-9.8 118.2,452.8 652.3,2501.7 695.2,2693.4 21.5,96.1 88,130.8 154.8,139.8 -17.1,1.6 -33.6,3 -49.3,4.3 17.5,5.2 34.7,7.9 51.6,7.9 v 0 c 382.4,0 2444.3,-15.7 3037.1,-22 1434.9,-15.2 3177.8,-43.8 3734.6,-53.1 -112.3,-67.7 -200.7,-177.3 -244.2,-312.8 -162.2,-505.6 -460.9,-1438 -763.5,-2387.7 0,0 0,0 0.1,0 0.4,0 1.2,-0.1 2.4,-0.3 -0.8,-2.6 -1.7,-5.2 -2.5,-7.8 -15.9,6.7 -32.3,13.6 -49.3,20.6 l -1.8,0.8 c -67.5,28.1 -143.8,58.9 -226.2,90.3 h -0.1 c -42.7,16.3 -86.9,32.8 -132.6,49.2 -128.8,46.4 -267.8,92.3 -408.7,131.8 -62.5,17.6 -125.5,34 -188.1,48.5 -80.4,18.8 -160.1,34.6 -237.8,46.3 -2.7,0.5 -4.9,0.8 -6.8,1.1 -9.2,1.4 -18.3,2.6 -27.4,3.9 -54.8,7.5 -108.4,13.1 -160.3,16.1 h -0.1 c -0.1,0 -0.1,0 -0.1,0 -163.5,31 -344.7,55.3 -512.3,55.3 -221.6,0 -419.3,-42.4 -520.1,-167.7 -61.8,-76.9 -147.5,-205 -243.6,-366.5"
         style="fill:#d3e7fc;fill-opacity:1;fill-rule:nonzero;stroke:none"
         id="path148" /><path
         d="m 16256.7,6397.8 c -53.7,23.9 -124.6,54.7 -207.8,89 297.8,933.5 611.7,1879.5 771,2376.1 74.4,231.9 280.4,387.8 512.1,387.8 0,0 62.5,-0.6 154.1,-7.8 15.7,-1.3 32.2,-2.7 49.3,-4.3 -66.8,-9 -133.3,-43.7 -154.8,-139.8 -42.9,-191.7 -577,-2240.6 -695.2,-2693.4 -145.3,-2.1 -288.6,-4.7 -428.7,-7.6"
         style="fill:#d3e7fc;fill-opacity:1;fill-rule:nonzero;stroke:none"
         id="path150" /><path
         d="m 15543.4,2991.7 h -723 v 0 h 723 v 0 m -2195.5,1021.2 c -136.6,31.7 -286.9,49.7 -453.5,49.7 -92.3,0 -189.4,-5.5 -292.1,-17.4 v 0 c -12.4,74.1 -16.8,151.4 -12.5,231.5 42.5,797.9 850.5,2146 1148.5,2486.6 103.9,118.8 302.6,160 528.5,160 505.4,0 1146.6,-206.4 1166.1,-212.8 -285.5,88.2 -590.1,157.6 -842.1,157.6 -225.7,0 -409,-55.6 -498.3,-203.4 -54,-89.4 -134.5,-253.8 -223.3,-461.5 -3,-1.6 -5.8,-3.1 -8.5,-4.6 -278.6,-159 -436.7,-817.7 -524.4,-1543.5 -10.4,-86.1 -8.6,-171 4.3,-254.1 -4.4,-42.5 -7.6,-84 -9.6,-124.3 -4.5,-91.8 1.6,-179.8 16.9,-263.8"
         style="fill:#d3e7fc;fill-opacity:1;fill-rule:nonzero;stroke:none"
         id="path152" /><path
         d="m 14820.4,2991.7 h -696.2 c -716.5,0 -1415.1,409.9 -1521.9,1053.5 v 0 c 102.7,11.9 199.8,17.4 292.1,17.4 166.6,0 316.9,-18 453.5,-49.7 114.6,-625 746.5,-1021.2 1394.3,-1021.2 h 78.1 c 0.1,0 0.1,0 0.1,0 v 0"
         style="fill:#c5dcf6;fill-opacity:1;fill-rule:nonzero;stroke:none"
         id="path154" /><path
         d="m 15751.2,2991.7 h -1009 c -647.8,0 -1279.7,396.2 -1394.3,1021.2 -15.3,84 -21.4,172 -16.9,263.8 2,40.3 5.2,81.8 9.6,124.3 45.2,-290.2 226.9,-559.2 506.5,-782.8 v 0 0 c 21.2,-17 43,-33.7 65.2,-50.1 276.6,-203.8 637.2,-365.9 1049.8,-466.5 246.7,-60.1 512.1,-98.2 789.1,-109.9 m -1882,3211.5 c 88.8,207.7 169.3,372.1 223.3,461.5 89.3,147.8 272.6,203.4 498.3,203.4 252,0 556.6,-69.4 842.1,-157.6 230.5,-71.2 448.4,-154.6 616,-223.7 83.2,-34.3 154.1,-65.1 207.8,-89 -1194,-25.1 -2166.4,-81.6 -2387.5,-194.6"
         style="fill:#bdd3f2;fill-opacity:1;fill-rule:nonzero;stroke:none"
         id="path156" /><path
         d="m 21247.4,2986.6 h -24.9 l 25.1,0.7 -0.2,-0.7 M 20031.9,3502 c -763.3,102.9 -1624.7,178 -2512.3,178 -54.5,0 -108.8,-0.3 -163.5,-0.8 -1422.8,-15.1 -2614,-13.1 -3509,-61 v 0 c -279.6,223.6 -461.3,492.6 -506.5,782.8 -12.9,83.1 -14.7,168 -4.3,254.1 87.7,725.8 245.8,1384.5 524.4,1543.5 2.7,1.5 5.5,3 8.5,4.6 221.1,113 1193.5,169.5 2387.5,194.6 140.1,2.9 283.4,5.5 428.7,7.6 478.7,7 980.9,9.8 1476.5,9.8 888.8,0 1755.8,-8.9 2424.5,-18.4 -329.9,-554.4 -782.3,-1502.2 -812.6,-2120.1 -4.5,-92.3 1.6,-180.8 17.2,-265.1 v 0 0 c 35.7,-193.5 121,-365 240.9,-509.6"
         style="fill:#cde0f9;fill-opacity:1;fill-rule:nonzero;stroke:none"
         id="path158" /><path
         d="m 21222.5,2986.6 -1683.7,0.4 -2937.6,0.8 h -8.4 l -620.6,0.2 c -12.6,-0.1 -25.1,-0.2 -37.6,-0.2 -61.7,0 -122.9,1.3 -183.4,3.9 -277,11.7 -542.4,49.8 -789.1,109.9 -412.6,100.6 -773.2,262.7 -1049.8,466.5 -22.2,16.4 -44,33.1 -65.2,50.1 v 0 c 895,47.9 2086.2,45.9 3509,61 54.7,0.5 109,0.8 163.5,0.8 887.6,0 1749,-75.1 2512.3,-178 267.2,-321.9 706.3,-510.3 1153,-510.3 h 63.5 l -0.8,-4.4 -25.1,-0.7"
         style="fill:#c5d9f5;fill-opacity:1;fill-rule:nonzero;stroke:none"
         id="path160" /><path
         d="m 20537.8,3985.5 c -139.4,28.1 -288.4,44 -448.1,44 -95.7,0 -195.1,-5.7 -298.7,-17.9 v 0 c -15.6,84.3 -21.7,172.8 -17.2,265.1 30.3,617.9 482.7,1565.7 812.6,2120.1 96.1,161.5 181.8,289.6 243.6,366.5 100.8,125.3 298.5,167.7 520.1,167.7 167.6,0 348.8,-24.3 512.3,-55.3 -29.8,1.7 -59,2.6 -87.4,2.6 -225.8,0 -409,-55.9 -498.3,-204.1 -37.6,-62.4 -88,-161.3 -145.2,-285.8 -118.2,-257.6 -265,-625.6 -385.9,-1009.5 -120.1,-381.4 -214.7,-778.7 -230.5,-1099.6 -5,-102.8 3.1,-200.9 22.7,-293.8"
         style="fill:#e1edfb;fill-opacity:1;fill-rule:nonzero;stroke:none"
         id="path162" /><path
         d="m 21867.4,2991.7 h -682.5 c -446.7,0 -885.8,188.4 -1153,510.3 -119.9,144.6 -205.2,316.1 -240.9,509.6 v 0 c 103.6,12.2 203,17.9 298.7,17.9 159.7,0 308.7,-15.9 448.1,-44 v 0 c 51.9,-246.5 184.6,-456.2 366.1,-618.7 h 0.1 c 108.3,-96.9 234.1,-177 370.7,-237.9 167.7,-75 351.7,-121.2 539.6,-134.5 9.7,-0.6 19.4,-1.2 29.2,-1.8 7.7,-0.3 15.5,-0.7 23.3,-0.9 0.2,0 0.4,0 0.6,0"
         style="fill:#d3e4fa;fill-opacity:1;fill-rule:nonzero;stroke:none"
         id="path164" /><path
         d="m 24037,2984.6 c -68.4,0 -149.3,0.3 -237.3,0.9 -7.7,0 -15.6,0 -23.4,0.1 -21.2,0.1 -42.7,0.3 -64.5,0.5 -130.2,1.1 -270.6,2.5 -404.9,4.1 -25.4,0.3 -50.6,0.6 -75.4,0.9 v -0.6 h -1305.2 c -6.9,0 -13.8,0.1 -20.6,0.1 -12.8,0.2 -25.6,0.6 -38.3,1.1 -0.2,0 -0.4,0 -0.6,0 -7.8,0.2 -15.6,0.6 -23.3,0.9 -9.8,0.6 -19.5,1.2 -29.2,1.8 -187.9,13.3 -371.9,59.5 -539.6,134.5 -136.6,60.9 -262.4,141 -370.7,237.9 h -0.1 c -181.5,162.5 -314.2,372.2 -366.1,618.7 v 0 c -19.6,92.9 -27.7,191 -22.7,293.8 15.8,320.9 110.4,718.2 230.5,1099.6 120.9,383.9 267.7,751.9 385.9,1009.5 57.2,124.5 107.6,223.4 145.2,285.8 89.3,148.2 272.5,204.1 498.3,204.1 28.4,0 57.6,-0.9 87.4,-2.6 0,0 0,0 0.1,0 h 0.1 c 51.9,-3 105.5,-8.6 160.3,-16.1 9.1,-1.3 18.2,-2.5 27.4,-3.9 1.9,-0.3 4.1,-0.6 6.8,-1.1 77.7,-11.7 157.4,-27.5 237.8,-46.3 62.6,-14.5 125.6,-30.9 188.1,-48.5 140.9,-39.5 279.9,-85.4 408.7,-131.8 45.7,-16.4 89.9,-32.9 132.6,-49.2 h 0.1 c 82.4,-31.4 158.7,-62.2 226.2,-90.3 l 1.8,-0.8 c 17,-7 33.4,-13.9 49.3,-20.6 0.8,2.6 1.7,5.2 2.5,7.8 44.5,-7.8 603.6,-157.7 603.6,-157.7 0,0 669.8,2565.9 718.2,2781.6 21.5,96 87.8,130.8 154.7,139.7 v 0 h 0.2 c 189.7,-18.2 462.5,-63.8 593.2,-177.1 88.6,-76.9 149.5,-414.1 202.4,-896.6 46.6,-425 84.1,-818.8 111.9,-1183 6.7,-88.4 12.9,-175.1 18.5,-260 12.4,-189.2 22.1,-369.8 28.7,-542.3 1.3,-34.3 2.6,-68.4 3.6,-102.1 2.4,-74.2 4.2,-146.7 5.5,-217.8 2.8,-162.2 2.7,-316.3 -0.6,-462.6 0,-3.6 -0.1,-7.2 -0.2,-10.8 -0.4,-16.3 -0.8,-32.5 -1.2,-48.5 -5.3,-184.2 -15.6,-355.9 -31.1,-515.6 -4.4,-45.2 -9.2,-89.4 -14.5,-132.8 -11.5,-95 -25,-185.6 -40.7,-271.7 -0.8,-4.8 -1.7,-9.5 -2.7,-14.3 -34.6,-187.4 -79.2,-353.6 -134.5,-500 -45.1,-119.8 -97.2,-226.3 -156.5,-320.6 -85.2,-135.4 -185.3,-245.5 -301,-332.4 -44.8,-33.6 -92.1,-63.9 -141.6,-90.8 -18.5,-10.1 -37.5,-19.7 -56.7,-28.9 -18.9,-9 -38.1,-17.5 -57.7,-25.6 -109.5,-45.6 -229.2,-77.4 -359.7,-96.8 -101.1,-15.1 -208.7,-22.7 -322.8,-23.4 -25.6,-0.2 -54.6,-0.2 -86.2,-0.2 m 479.6,6262.5 c 1.2,0.2 2.4,0.3 3.6,0.4 -1.2,-0.1 -2.4,-0.2 -3.6,-0.4"
         style="fill:#bdd3f2;fill-opacity:1;fill-rule:nonzero;stroke:none"
         id="path166" /><path
         d="m 23907.8,6317.2 c 0,0 -559.1,149.9 -603.6,157.7 -1.2,0.2 -2,0.3 -2.4,0.3 -0.1,0 -0.1,0 -0.1,0 302.6,949.7 601.3,1882.1 763.5,2387.7 43.5,135.5 131.9,245.1 244.2,312.8 62.8,37.9 133.2,62.6 207.2,71.4 1.2,0.2 2.4,0.3 3.6,0.4 18.9,2.2 37.9,3.2 57.2,3.2 0,0 85.7,-0.8 203.4,-12.1 l -0.1,-0.1 c -66.9,-8.9 -133.2,-43.7 -154.7,-139.7 -48.4,-215.7 -718.2,-2781.6 -718.2,-2781.6"
         style="fill:#e1edfb;fill-opacity:1;fill-rule:nonzero;stroke:none"
         id="path168" /><path
         d="m 24651,7399.9 v -112.4 c 0,-39.4 12.7,-71.5 28.2,-71.5 h 4101.1 c 15.5,0 28.3,32.1 28.3,71.5 v 112.4 c 0,39.2 -12.8,71.4 -28.3,71.4 h -4101.1 c -15.5,0 -28.2,-32.2 -28.2,-71.4"
         style="fill:#9abfe2;fill-opacity:1;fill-rule:nonzero;stroke:none"
         id="path170" /><path
         d="m 24651,7399.9 v -112.4 c 0,-39.4 11.7,-71.5 25.9,-71.5 h 3255.8 c 14.3,0 26,32.1 26,71.5 v 112.4 c 0,39.2 -11.7,71.4 -26,71.4 h -3255.8 c -14.2,0 -25.9,-32.2 -25.9,-71.4"
         style="fill:#dfebfd;fill-opacity:1;fill-rule:nonzero;stroke:none"
         id="path172" /><path
         d="m 25688.9,2972.3 h 2911.5 V 7216 H 25688.9 V 2972.3"
         style="fill:#c8dbf4;fill-opacity:1;fill-rule:nonzero;stroke:none"
         id="path174" /><path
         d="m 24873,2972.3 h 2911.5 V 7216 H 24873 V 2972.3"
         style="fill:#dfebfd;fill-opacity:1;fill-rule:nonzero;stroke:none"
         id="path176" /><path
         d="M 27600,7068 H 25057.5 V 3234.7 H 27600 Z m -2570.6,28.1 H 27628 V 3206.6 h -2598.6 v 3889.5"
         style="fill:#b7d3f3;fill-opacity:1;fill-rule:nonzero;stroke:none"
         id="path178" /><path
         d="M 25043.5,5781.4 H 27614 v 28 h -2570.5 v -28"
         style="fill:#b7d3f3;fill-opacity:1;fill-rule:nonzero;stroke:none"
         id="path180" /><path
         d="M 25043.5,4469.6 H 27614 v 28.1 h -2570.5 v -28.1"
         style="fill:#b7d3f3;fill-opacity:1;fill-rule:nonzero;stroke:none"
         id="path182" /><path
         d="m 26065.3,6845.3 h 477 c 23.2,0 42.1,18.9 42.1,42 0,23.2 -18.9,42.1 -42.1,42.1 h -477 c -23.1,0 -42.1,-18.9 -42.1,-42.1 0,-23.1 19,-42 42.1,-42"
         style="fill:#b7d3f3;fill-opacity:1;fill-rule:nonzero;stroke:none"
         id="path184" /><path
         d="m 26065.3,5562.5 h 477 c 23.2,0 42.1,19 42.1,42.1 0,23.2 -18.9,42.1 -42.1,42.1 h -477 c -23.1,0 -42.1,-18.9 -42.1,-42.1 0,-23.1 19,-42.1 42.1,-42.1"
         style="fill:#b7d3f3;fill-opacity:1;fill-rule:nonzero;stroke:none"
         id="path186" /><path
         d="m 26065.3,4225.4 h 477 c 23.2,0 42.1,18.9 42.1,42 0,23.2 -18.9,42.1 -42.1,42.1 h -477 c -23.1,0 -42.1,-18.9 -42.1,-42.1 0,-23.1 19,-42 42.1,-42"
         style="fill:#b7d3f3;fill-opacity:1;fill-rule:nonzero;stroke:none"
         id="path188" /><path
         d="m 14470.4,8539.9 c 0,0 -212.7,-14.4 -299.4,-68.1 -86.7,-53.7 -165.2,-74.4 -149.7,-99.1 15.5,-24.8 167.2,27.8 170.3,0 3.1,-27.9 -134,-111.6 -172.3,-117.7 -38.3,-6.3 -125,-18.6 -109.5,-68.2 15.4,-49.6 162.3,-65.1 279.4,-68.1 117.1,-3.1 402,185.8 402,185.8 l -120.8,235.4"
         style="fill:#ffb27d;fill-opacity:1;fill-rule:nonzero;stroke:none"
         id="path190" /><path
         d="m 14625.3,8273.5 c 215.4,0.1 925.9,474.9 1164.7,666.6 25.9,20.8 45.9,38.3 59,51.6 89,90.7 396,538.3 614,936.9 125.4,229.6 221.3,442.9 228.9,562.5 27.2,426.7 -197.3,1023.4 -197.3,1023.4 -664,-231.1 -733.8,-761.2 -733.8,-761.2 l -340.3,-1266.5 c -18.1,-67.4 -56.6,-127.5 -110.3,-172.1 l -899.7,-747.9 c -30.3,-128.1 143,-293.3 214.8,-293.3"
         style="fill:#f9ddbf;fill-opacity:1;fill-rule:nonzero;stroke:none"
         id="path192" /><path
         d="m 15790,8940.1 c 25.9,20.8 45.9,38.3 59,51.6 89,90.7 396,538.3 614,936.9 28.2,240.9 8.8,466.9 -90.5,624.9 0,0 -564.4,-993.2 -582.5,-1613.4"
         style="fill:#f2ccaa;fill-opacity:1;fill-rule:nonzero;stroke:none"
         id="path194" /><path
         d="m 16172.5,4993.1 112.9,-470.7 69.8,-291.4 232.6,-969.8 c 0,0 199,-61.3 405.9,0 0,0 76.7,320.9 78.8,721.2 1.3,209.3 -18,440.5 -79.2,658.7 -24.8,88.8 -56.7,175.4 -96.9,257.6 -328.1,670.1 -723.9,94.4 -723.9,94.4"
         style="fill:#ffb27d;fill-opacity:1;fill-rule:nonzero;stroke:none"
         id="path196" /><path
         d="m 15979.8,2977.9 h 1092.8 c 0,0 17.3,165.3 -30.8,323.5 -7.1,23.5 -15.7,46.8 -26,69.5 0,0 -244,-55.3 -454.3,0 0,0 -197.9,-168.5 -317.5,-220.1 -119.4,-51.7 -251.6,-23.6 -264.2,-172.9"
         style="fill:#2b478b;fill-opacity:1;fill-rule:nonzero;stroke:none"
         id="path198" /><path
         d="m 16285.4,4522.4 69.8,-291.4 c 118.8,-75.8 375.2,-213.1 717.3,-248.6 1.3,209.3 -18,440.5 -79.2,658.7 -100.5,51 -202.8,77.7 -289.9,62.5 -216.9,-37.9 -345.8,-117.1 -418,-181.2"
         style="fill:#e8945b;fill-opacity:1;fill-rule:nonzero;stroke:none"
         id="path200" /><path
         d="m 16547.4,2977.9 h 525.2 c 0,0 17.3,165.3 -30.8,323.5 -131.9,-41 -400.2,-144 -494.4,-323.5"
         style="fill:#1f396d;fill-opacity:1;fill-rule:nonzero;stroke:none"
         id="path202" /><path
         d="m 17043.7,4993.1 112.8,-470.7 69.9,-291.4 232.5,-969.8 c 0,0 199.1,-61.3 406,0 0,0 76.6,320.9 78.8,721.2 1.2,209.3 -18,440.5 -79.2,658.7 -24.8,88.8 -56.7,175.4 -96.9,257.6 -328.1,670.1 -723.9,94.4 -723.9,94.4"
         style="fill:#ffb27d;fill-opacity:1;fill-rule:nonzero;stroke:none"
         id="path204" /><path
         d="m 17887,3370.9 c 0,0 -244,-55.3 -454.4,0 0,0 -197.8,-168.5 -317.4,-220.1 -119.5,-51.7 -251.7,-23.6 -264.2,-172.9 h 1092.8 c 0,0 22.8,218.1 -56.8,393"
         style="fill:#2b478b;fill-opacity:1;fill-rule:nonzero;stroke:none"
         id="path206" /><path
         d="m 17156.5,4522.4 69.9,-291.4 c 118.8,-75.8 375.2,-213.1 717.3,-248.6 1.2,209.3 -18,440.5 -79.2,658.7 -100.5,51 -202.8,77.7 -289.9,62.5 -216.9,-37.9 -345.8,-117.1 -418.1,-181.2"
         style="fill:#e8945b;fill-opacity:1;fill-rule:nonzero;stroke:none"
         id="path208" /><path
         d="m 16014.9,4455.7 c 408.3,-259.2 2108.8,-73.9 2122.7,177 0,0 -84.1,628.5 -112.8,891.7 -11.9,109.4 -17.4,196.9 -10.5,242.6 176.9,1170.4 325.3,2548.9 307.3,2812.4 -2.5,37.1 -4.3,56.3 -4.3,56.3 0,0 -127.6,10.7 -321.8,18.3 -564.3,22.3 -1690.8,18.4 -1877.9,-350.6 -190.7,-376 -195.4,-2559.9 -195.4,-2559.9 0,-600.7 92.7,-1287.8 92.7,-1287.8"
         style="fill:#f99746;fill-opacity:1;fill-rule:nonzero;stroke:none"
         id="path210" /><path
         d="m 18024.8,5524.4 c -11.9,109.4 -17.4,196.9 -10.5,242.6 176.9,1170.4 325.3,2548.9 307.3,2812.4 -2.5,37.1 -4.3,56.3 -4.3,56.3 0,0 -127.6,10.7 -321.8,18.3 -291.9,-172 -481.9,-464.9 -481.9,-464.9 0,0 58.8,-2190.2 511.2,-2664.7"
         style="fill:#ed7d2b;fill-opacity:1;fill-rule:nonzero;stroke:none"
         id="path212" /><path
         d="m 17244.1,13210.2 c 0,152.2 -87.5,262.1 -256.4,272.6 -123.8,7.7 -295,-67.4 -295,-219.6 0,-152.3 123.5,-328.7 275.7,-328.7 152.3,0 275.7,123.4 275.7,275.7"
         style="fill:#bbd2ef;fill-opacity:1;fill-rule:nonzero;stroke:none"
         id="path214" /><path
         d="m 17008.9,12109.8 c 0,0 662.7,596.8 152.8,1055.3 -49.4,44.4 -109.5,75.2 -174.4,89.3 -178.4,38.9 -574.8,93.6 -775.2,-127.9 -215.9,-238.5 -301.3,-420 -121.3,-637.4 180,-217.5 918.1,-379.3 918.1,-379.3"
         style="fill:#d5e5fb;fill-opacity:1;fill-rule:nonzero;stroke:none"
         id="path216" /><path
         d="m 17874.2,8157.3 c 0,0 -29.6,-114.9 -17.5,-251.4 17.1,-192 52.2,-297.3 176.7,-359.7 0,0 143.9,-98.5 165.9,29.4 22.1,127.9 -21.6,132.4 13.2,311.8 34.7,179.3 8.5,315.7 -94.7,396.5 l -243.6,-126.6"
         style="fill:#ffb27d;fill-opacity:1;fill-rule:nonzero;stroke:none"
         id="path218" /><path
         d="m 16411.6,12115.9 c 0,0 8.9,-98.4 25.6,-231.3 8.2,-64.9 18.1,-138.1 29.8,-212.1 8.3,-53.2 17.5,-106.8 27.6,-158 l 225.8,-762.6 530.1,858 c 0,0 -124.5,103 -293.4,661.7 -1.6,6 -2.7,9.2 -2.7,9.2 l -542.8,-164.9"
         style="fill:#ffb27d;fill-opacity:1;fill-rule:nonzero;stroke:none"
         id="path220" /><path
         d="m 16102.7,8354 c -6.9,-85.7 14.8,-101.2 14.8,-101.2 0,0 326,-118.2 1145.8,-77.3 88.7,4.4 172.2,8.9 250.3,13.6 528.4,31.1 810.9,63.7 810.9,63.7 0,0 432.8,998.8 -380.2,2229.5 -92,139.1 -199.8,281.3 -326,425.2 -131.7,150.2 -160.8,351.1 -210.6,542 -14.3,54.8 27,66.9 6.4,118.5 0,0 -148.3,41.9 -163.6,41.9 -84.1,-74.2 -195.2,-218.4 -470.9,-246.9 -186.4,-19.5 -259.4,85.6 -285.9,148.5 -71.1,-25.6 -144.7,-70 -205,-99 -499.6,-239.8 -545.5,-704.9 -545.5,-704.9 0,0 459.1,-1509.6 487.6,-1698.1 12.8,-83.8 -92.6,-214.1 -128.1,-655.5"
         style="fill:#f9ddbf;fill-opacity:1;fill-rule:nonzero;stroke:none"
         id="path222" /><path
         d="m 16437.2,11884.6 c 8.2,-64.9 18.1,-138.1 29.8,-212.1 579.1,225.3 505.4,540.9 490.1,599.1 -1.6,6 -2.7,9.2 -2.7,9.2 0,0 -297.1,-210.9 -517.2,-396.2"
         style="fill:#e8945b;fill-opacity:1;fill-rule:nonzero;stroke:none"
         id="path224" /><path
         d="m 16316.9,11809.2 c 0,0 648.4,-20.8 655.2,383.2 6.7,404 94.9,673.4 -318.8,703.7 -413.7,30.4 -496.7,-122.4 -531.8,-256.7 -35,-134.3 26.9,-814.4 195.4,-830.2"
         style="fill:#ffb27d;fill-opacity:1;fill-rule:nonzero;stroke:none"
         id="path226" /><path
         d="m 16260.3,12956.6 c 0,0 40.7,-769.7 831.1,-697.4 0,0 -16.8,1029.4 -831.1,697.4"
         style="fill:#d5e5fb;fill-opacity:1;fill-rule:nonzero;stroke:none"
         id="path228" /><path
         d="m 16411.6,12889.6 c 0,0 -234.3,-143 -307.1,-372.2 0,0 -261.3,364.1 307.1,372.2"
         style="fill:#d5e5fb;fill-opacity:1;fill-rule:nonzero;stroke:none"
         id="path230" /><path
         d="m 17513.6,8189.1 c 528.4,31.1 810.9,63.7 810.9,63.7 0,0 432.8,998.8 -380.2,2229.5 -164.6,-383.7 -552.8,-1409.1 -430.7,-2293.2"
         style="fill:#f2ccaa;fill-opacity:1;fill-rule:nonzero;stroke:none"
         id="path232" /><path
         d="m 17250.5,11609.9 c 0,0 627.3,-128.7 906.8,-452.3 214.1,-248 448.4,-1460.3 448.4,-1660.6 0,-191.4 -220.1,-1209.2 -357.4,-1404.3 -9.6,-13.6 -25.5,-21 -42,-19.3 l -353.3,37.5 c -29.4,3.1 -50.3,30.2 -45.8,59.5 l 198.5,1286.5 -696.7,1235.7 c 0,0 -410.8,486.9 -58.5,917.3"
         style="fill:#f9ddbf;fill-opacity:1;fill-rule:nonzero;stroke:none"
         id="path234" /><path
         d="m 17871.7,8073.1 c 0,0 -92.9,-267.3 -68.1,-292.1 24.7,-24.8 89.8,83.6 89.8,83.6 l -21.7,208.5"
         style="fill:#ffb27d;fill-opacity:1;fill-rule:nonzero;stroke:none"
         id="path236" /><path
         d="m 16236.4,12081.6 c 0,0 19.2,-66 50.2,-72.2 31,-6.2 80.5,-16.6 123.9,0 43.4,16.5 55.8,51.6 55.8,51.6 0,0 -98.4,37.2 -229.9,20.6"
         style="fill:#ffffff;fill-opacity:1;fill-rule:nonzero;stroke:none"
         id="path238" /><path
         d="m 19846.7,2968.3 -17.7,5237.3 c 0,0 -40,377.5 -369,379.4 -351.2,2.1 -373.6,-375 -373.6,-375 0,0 4.9,-32.6 40.9,-32.8 37.8,-0.2 44.2,32.3 44.2,32.3 0,0 17.3,290.7 287.9,289.1 253.7,-1.5 284.6,-292.5 284.6,-292.5 l -31.2,-5237 133.9,-0.8"
         style="fill:#233862;fill-opacity:1;fill-rule:nonzero;stroke:none"
         id="path240" /><path
         d="m 19667.7,2969.4 218.4,-1.3 -18.1,228.4 c 0,0 2,31.7 -42.1,33.8 -41,1.9 -121.9,8.2 -129.7,-16.5 -6.9,-21.8 -28.5,-244.4 -28.5,-244.4"
         style="fill:#233862;fill-opacity:1;fill-rule:nonzero;stroke:none"
         id="path242" /><path
         d="m 19458.9,8862.6 -15.3,-74.9 c 0,0 -370.3,3.6 -459.2,-392.6 0,0 -24.5,-165 94.8,-130.5 119.2,34.6 101.2,118.9 270,164.1 168.8,45.2 278.9,79.9 305.2,202.4 l 28.3,136.4 -223.8,95.1"
         style="fill:#ffb27d;fill-opacity:1;fill-rule:nonzero;stroke:none"
         id="path244" /><path
         d="m 20787.5,12101.9 c 0,0 -100.2,-384.8 -186.8,-736.6 -34.9,-141.7 -67.5,-278 -90.5,-381.7 -23.6,-106.5 -37,-178.7 -32,-186.7 72.7,-119.7 -65.8,-845.9 -173.5,-1109.2 -9.5,-23.4 -22.6,-50.7 -38.2,-81.1 -150.2,-290.1 -548.7,-858.8 -548.7,-858.8 0,0 -111.6,-11 -184.3,16.9 -60.7,23.5 -101.8,98.1 -101.8,98.1 18.9,73.7 182.6,727.7 368.8,1103.3 79.7,160.7 204.5,1655.2 358.1,1855.6 128.2,167.1 628.9,280.2 628.9,280.2"
         style="fill:#f99746;fill-opacity:1;fill-rule:nonzero;stroke:none"
         id="path246" /><path
         d="m 20478.2,10796.9 c 72.7,-119.7 -65.8,-845.9 -173.5,-1109.2 -9.5,-23.4 -22.6,-50.7 -38.2,-81.1 -138.1,628.3 102.2,1515.8 102.2,1515.8 58.5,-23.6 105.1,-72.3 141.5,-138.8 -23.6,-106.5 -37,-178.7 -32,-186.7"
         style="fill:#ed7d2b;fill-opacity:1;fill-rule:nonzero;stroke:none"
         id="path248" /><path
         d="m 21462.8,3535.6 c 0,0 34.3,-568.1 -73,-575.4 -14.3,-1 -543.9,2.2 -543.9,2.2 l -683.2,4 c 0,0 12.5,166.8 210.4,200 197.8,33.3 529.4,170.2 650.7,430.7 127.6,274.1 439,-61.5 439,-61.5"
         style="fill:#0f2949;fill-opacity:1;fill-rule:nonzero;stroke:none"
         id="path250" /><path
         d="m 22490.3,3529.5 c 0,0 34.3,-568.1 -72.9,-575.4 -14.3,-1 -543.9,2.1 -543.9,2.1 l -683.2,4.1 c 0,0 12.5,166.8 210.3,200 197.8,33.3 529.4,170.2 650.7,430.7 127.6,274.1 439,-61.5 439,-61.5"
         style="fill:#163560;fill-opacity:1;fill-rule:nonzero;stroke:none"
         id="path252" /><path
         d="m 21503.2,4904.1 c 15.4,-240.2 47.9,-549.2 34,-827.5 -19.4,-389 -33.7,-717.2 -33.7,-717.2 -257.1,-85.7 -727.3,23 -727.3,23 0,0 -161.1,984.5 -294,1770.4 -59.6,352.2 -109,656.8 -127.3,800.6 -59.1,464.9 83.3,2933.8 83.3,2933.8 0,0 697,440.9 982.5,209.8 285.4,-231.1 460.6,-456.4 -16.5,-2966.7 -36.2,-190.4 64.6,-688.1 99,-1226.2"
         style="fill:#2b478b;fill-opacity:1;fill-rule:nonzero;stroke:none"
         id="path254" /><path
         d="m 21503.2,4904.1 c 15.4,-240.2 44.1,-624.7 30.3,-903 -239.9,256.9 -712.4,798.7 -1051.3,1151.7 -59.6,352.2 -109,656.8 -127.3,800.6 -59.1,464.9 83.3,2933.8 83.3,2933.8 0,0 697,440.9 982.5,209.8 285.4,-231.1 460.6,-456.4 -16.5,-2966.7 -36.2,-190.4 64.6,-688.1 99,-1226.2"
         style="fill:#233862;fill-opacity:1;fill-rule:nonzero;stroke:none"
         id="path256" /><path
         d="m 21065.4,8833.3 c 0,0 47.6,-2472.7 142.3,-2931.6 94.7,-458.9 590.8,-2560.3 590.8,-2560.3 0,0 476.4,-46.2 726.1,59 0,0 -10.1,971.9 -91.2,1543.3 -75.8,533.9 -214.5,1022.4 -193,1215 282.8,2539.6 90.7,2750.7 -211.6,2959.2 -302.4,208.5 -963.4,-284.6 -963.4,-284.6"
         style="fill:#2b478b;fill-opacity:1;fill-rule:nonzero;stroke:none"
         id="path258" /><path
         d="m 22018.3,8611.2 c 0,0 -167.1,-330.4 148.9,-585.5 0,0 137.1,-95 158.9,27.2 21.8,122.2 -2.8,79.8 31.5,251.1 34.2,171.4 -7.2,349.1 -105.5,426.9 l -233.8,-119.7"
         style="fill:#ffb27d;fill-opacity:1;fill-rule:nonzero;stroke:none"
         id="path260" /><path
         d="m 20638.2,12663 c 0,0 186.4,-304.3 146.7,-574.5 l 280.7,-667.9 504.1,764.5 c 0,0 -257.7,304.8 -355.7,704.3 l -575.8,-226.4"
         style="fill:#ffb27d;fill-opacity:1;fill-rule:nonzero;stroke:none"
         id="path262" /><path
         d="m 20553.2,12416.3 c 0,0 693.9,-34.2 709,382.4 15.1,416.7 204.4,692.8 -314.6,732.5 -426.8,32.6 -569.8,-144.6 -608.6,-282.4 -38.9,-137.9 -43,-808.7 214.2,-832.5"
         style="fill:#ffb27d;fill-opacity:1;fill-rule:nonzero;stroke:none"
         id="path264" /><path
         d="m 22230.6,8707.2 c -149.2,-13 -354.6,-28.9 -603.9,-43.1 -49.8,-2.9 -101.2,-5.7 -154.4,-8.3 -752.4,-37.6 -1050.7,85.9 -1050.7,85.9 0,0 -19.9,16.3 -13,104.6 35.4,454.7 132.8,588.4 121.6,675 -25,194.4 -486.9,1782.7 -486.9,1782.7 0,0 -6.1,500.9 552.3,732.6 57.5,24 121,45 191.1,62.3 24,-65 90.2,-173.7 261.4,-154.7 253,27.9 433.9,175.9 511.6,251.9 13.9,-0.1 19.5,-0.5 19.5,-0.5 18.5,-53.4 32.9,-109 45.6,-165.6 44.5,-197.1 70,-404.3 189.9,-559.9 118.3,-153.6 219.5,-304.9 305.7,-452.9 71.7,-123.1 133.2,-243.9 185.6,-361.6 486.6,-1092.8 100.2,-1933 -75.4,-1948.4"
         style="fill:#f99746;fill-opacity:1;fill-rule:nonzero;stroke:none"
         id="path266" /><path
         d="m 22230.6,8707.2 c -149.2,-13 -354.6,-28.9 -603.9,-43.1 -65.3,1224.7 440.5,2397.7 440.5,2397.7 18.7,-13.3 36.4,-28.2 53.2,-44.6 86.4,-84.9 146.2,-210.6 185.6,-361.6 145.3,-556 15.6,-1457.3 -75.4,-1948.4"
         style="fill:#ed7d2b;fill-opacity:1;fill-rule:nonzero;stroke:none"
         id="path268" /><path
         d="m 20331.8,12815.1 c 0,0 -138.4,-535.4 90.5,-612.2 228.9,-76.9 838.1,-20 841.7,637.3 0,0 -320.6,-188.7 -473.2,-182.9 -152.6,5.7 -250.5,94.3 -392,26.4 0,0 -51.6,3.7 -67,131.4"
         style="fill:#d5e5fb;fill-opacity:1;fill-rule:nonzero;stroke:none"
         id="path270" /><path
         d="m 21233.2,13399.9 c -11.4,42.6 -63.7,65.3 -63.7,65.3 -390,172.6 -676.7,-12.1 -676.7,-12.1 241.5,320.3 819.5,249.3 939.5,-41.6 196.1,-474.8 -168.3,-571.3 -168.3,-571.3 0,0 -362.3,154.8 -150.8,344.9 70,63 104.1,119.2 115.6,168.2 3.8,16.3 5.1,31.9 4.4,46.6"
         style="fill:#d5e5fb;fill-opacity:1;fill-rule:nonzero;stroke:none"
         id="path272" /><path
         d="m 20445.2,12597.4 c 0,0 45.8,-72.3 125.8,-69.7 79.9,2.6 117.5,69.7 117.5,69.7 0,0 -134.9,25.8 -243.3,0"
         style="fill:#ffffff;fill-opacity:1;fill-rule:nonzero;stroke:none"
         id="path274" /><path
         d="m 22027.1,8638 c 0,0 -109.6,-184.9 -123.3,-229.4 -13.7,-44.6 41.1,-46.3 71.9,0 30.8,46.2 51.4,229.4 51.4,229.4"
         style="fill:#ffb27d;fill-opacity:1;fill-rule:nonzero;stroke:none"
         id="path276" /><path
         d="m 21579.1,12195.6 c 0,0 485.2,-13.8 739.6,-348.9 194.9,-256.7 394.4,-1629.5 393.2,-1836 -1.3,-206.5 -229.2,-1344.8 -353.8,-1467.9 0,0 -80.2,-20.2 -187.1,1.1 -113.3,22.6 -179.8,88.7 -179.8,88.7 0,0 69.1,1268.4 69.9,1387.4 1,172.4 -531.5,1230.3 -531.5,1230.3 0,0 -276.4,503.6 49.5,945.3"
         style="fill:#f99746;fill-opacity:1;fill-rule:nonzero;stroke:none"
         id="path278" /><path
         d="M 30975.2,2900.7 H 1203.58 c -19.47,0 -35.41,15.9 -35.41,35.4 v 16 c 0,19.4 15.94,35.4 35.41,35.4 H 30975.2 c 19.4,0 35.4,-16 35.4,-35.4 v -16 c 0,-19.5 -16,-35.4 -35.4,-35.4"
         style="fill:#2e3552;fill-opacity:1;fill-rule:nonzero;stroke:none"
         id="path280" /><path
         d="m 27310.3,9289.1 c 0,0 -291.4,340 -18,555.9 0,0 199.8,121 362.6,111.1 0,0 -230.7,-386.9 -156.1,-425.4 74.7,-38.5 226.1,449.7 226.1,449.7 0,0 454.5,44.1 600.7,-26.2 0,0 -388.5,-318 -306.7,-336.9 81.8,-19 501.5,293.1 501.5,293.1 0,0 423.1,-71.9 400.5,-330 -22.5,-258.1 -168.3,-337.8 -232.4,-330.9 -64,6.9 -438.8,149.9 -447,97.4 -8.1,-52.5 217.5,-224 375.4,-232 0,0 -298.2,-329 -496.4,-234.1 -198.3,95 -215.2,245.5 -338.7,301.9 -123.6,56.4 -229.1,56.3 -178.1,-1.3 51,-57.5 274.7,-113.5 345.3,-238.5 70.7,-125 134.1,-209.3 -71,-178.4 -205.1,30.9 -538.4,180.9 -553.1,352.8 -14.6,171.8 -14.6,171.8 -14.6,171.8"
         style="fill:#82b378;fill-opacity:1;fill-rule:nonzero;stroke:none"
         id="path282" /><path
         d="m 28713.1,9573.4 c 0,0 -1149,44.3 -1402.8,-284.3 0,0 -56.1,-168.1 -228.8,-321.1 l -26.9,-73.4 c 0,0 199.1,210 270.3,222.7 0,0 -111.4,407.1 1388.2,456.1"
         style="fill:#82b378;fill-opacity:1;fill-rule:nonzero;stroke:none"
         id="path284" /><path
         d="m 27081.5,8968 c 0,0 -246.6,-182.4 -263.8,-508.3 l 44.8,-4 c 0,0 78.8,337 221.1,468.7 142.4,131.8 -2.1,43.6 -2.1,43.6"
         style="fill:#82b378;fill-opacity:1;fill-rule:nonzero;stroke:none"
         id="path286" /><path
         d="m 26376.7,9401.9 c 0,0 333.8,186.9 178,440.7 0,0 -124.6,155.8 -258.2,195.8 0,0 71.3,-378.3 0,-387.2 -71.2,-9 -48.9,427.3 -48.9,427.3 0,0 -351.7,169.2 -489.7,155.8 0,0 218.1,-369.5 146.9,-360.6 -71.2,8.9 -316.1,382.9 -316.1,382.9 0,0 -360.6,66.8 -418.4,-146.9 -57.9,-213.7 35.6,-320.5 89,-333.9 53.4,-13.4 396.2,-8.9 387.3,-53.4 -8.9,-44.5 -240.4,-115.8 -369.5,-75.7 0,0 142.5,-351.7 329.4,-333.9 187,17.8 244.9,133.6 360.6,142.5 115.8,8.9 200.3,-22.3 142.5,-53.4 -57.9,-31.2 -253.8,-10.2 -347.3,-89.7 -93.5,-79.5 -169.1,-128.5 4.5,-164.1 173.6,-35.6 485.2,-13.3 547.5,120.2 62.4,133.6 62.4,133.6 62.4,133.6"
         style="fill:#a8d29f;fill-opacity:1;fill-rule:nonzero;stroke:none"
         id="path288" /><path
         d="m 25335,10042.9 c 0,0 934.8,-302.7 1041.7,-641 0,0 -4.5,-151.4 89,-325 v -66.8 c 0,0 -97.9,227 -151.4,258.2 0,0 209.3,293.8 -979.3,774.6"
         style="fill:#82b378;fill-opacity:1;fill-rule:nonzero;stroke:none"
         id="path290" /><path
         d="m 26465.7,9076.9 c 0,0 144.2,-218.9 62,-485.4 l -37.1,9.9 c 0,0 36,293.6 -39.4,441.2 -75.5,147.6 14.5,34.3 14.5,34.3"
         style="fill:#82b378;fill-opacity:1;fill-rule:nonzero;stroke:none"
         id="path292" /><path
         d="m 27028.9,10074.7 c 0,0 -611.1,342.2 -325.9,806.6 0,0 228.1,285.2 472.6,358.5 0,0 -130.4,-692.5 0,-708.8 130.3,-16.3 89.6,782.1 89.6,782.1 0,0 643.7,309.6 896.2,285.2 0,0 -399.2,-676.3 -268.8,-660 130.3,16.3 578.4,700.7 578.4,700.7 0,0 660,122.3 765.9,-268.8 105.9,-391.1 -65.2,-586.7 -162.9,-611.1 -97.8,-24.4 -725.2,-16.3 -708.9,-97.8 16.3,-81.5 440,-211.8 676.3,-138.5 0,0 -260.7,-643.7 -602.9,-611.1 -342.2,32.6 -448.2,244.5 -660,260.8 -211.8,16.3 -366.6,-40.8 -260.7,-97.8 105.9,-57 464.4,-18.7 635.5,-164.2 171.1,-145.4 309.6,-235.1 -8.2,-300.2 -317.7,-65.2 -888,-24.5 -1002.1,220 -114.1,244.4 -114.1,244.4 -114.1,244.4"
         style="fill:#a8d29f;fill-opacity:1;fill-rule:nonzero;stroke:none"
         id="path294" /><path
         d="m 28935.5,11247.9 c 0,0 -1711,-554 -1906.6,-1173.2 0,0 8.2,-277 -162.9,-594.8 v -122.2 c 0,0 179.2,415.5 277,472.6 0,0 -383,537.7 1792.5,1417.6"
         style="fill:#82b378;fill-opacity:1;fill-rule:nonzero;stroke:none"
         id="path296" /><path
         d="m 26866,9479.9 c 0,0 -263.9,-400.7 -113.5,-888.4 l 67.9,18.2 c 0,0 -65.9,537.2 72.2,807.4 138,270.2 -26.6,62.8 -26.6,62.8"
         style="fill:#82b378;fill-opacity:1;fill-rule:nonzero;stroke:none"
         id="path298" /><path
         d="m 28205.3,8730.7 c 0,-661 -535.9,-1197 -1197,-1197 -138,0 -270.6,23.4 -393.9,66.4 -467.6,162.9 -803.1,607.6 -803.1,1130.6 h 2394"
         style="fill:#ed7d2b;fill-opacity:1;fill-rule:nonzero;stroke:none"
         id="path300" /><path
         d="m 27417.4,8730.7 c 0,-448.5 -107.4,-905.2 -472.5,-1110.2 -60.7,-34.1 -263.9,2.8 -330.5,-20.4 -467.6,162.9 -803.1,607.6 -803.1,1130.6 h 1606.1"
         style="fill:#f99746;fill-opacity:1;fill-rule:nonzero;stroke:none"
         id="path302" /><path
         d="m 28221.8,7472.8 h -2427 c 0,40.8 16.5,77.7 43.2,104.5 26.8,26.7 63.7,43.2 104.5,43.2 h 2131.7 c 81.5,0 147.6,-66.1 147.6,-147.7"
         style="fill:#ed7d2b;fill-opacity:1;fill-rule:nonzero;stroke:none"
         id="path304" /><path
         d="m 27084.7,7472.8 h -1289.9 c 0,40.8 16.5,77.7 43.2,104.5 26.8,26.7 63.7,43.2 104.5,43.2 h 994.5 c 81.5,0 147.7,-66.1 147.7,-147.7"
         style="fill:#f99746;fill-opacity:1;fill-rule:nonzero;stroke:none"
         id="path306" /><path
         d="M 28232.5,8694 H 25772 v 36.7 h 2460.5 V 8694"
         style="fill:#b5453c;fill-opacity:1;fill-rule:nonzero;stroke:none"
         id="path308" /><path
         d="m 15025.3,15886.6 c 0,207.8 168.4,376.3 376.2,376.3 207.8,0 376.2,-168.5 376.2,-376.3 0,-207.8 -168.4,-376.2 -376.2,-376.2 -207.8,0 -376.2,168.4 -376.2,376.2"
         style="fill:#f9ddbf;fill-opacity:1;fill-rule:nonzero;stroke:none"
         id="path310" /><path
         d="m 15484.9,17248.8 v -613.1 c 0,-50.1 -1.4,-97.5 -2.9,-141.9 v -0.9 c -4.3,-100.4 -12.9,-183.9 -24.2,-234.3 -7.3,-32.8 -15.7,-51.5 -24.9,-51.5 h -7.1 c -9,0 -17.3,20.3 -24.7,55.7 -9.2,44.8 -16.7,113.9 -21.6,196.9 v 0.5 c 0,11.3 -1.4,22.7 -1.4,34.1 v 3.7 c -1.5,42.9 -2.9,88.9 -2.9,137.7 v 619.2 c 37,-1.8 73.5,-3.9 109.7,-6.1"
         style="fill:#9fc1f4;fill-opacity:1;fill-rule:nonzero;stroke:none"
         id="path312" /><path
         d="m 15401.5,16498.5 c -398.7,0 -721.9,-341.8 -721.9,-763.4 h 1443.8 c 0,421.6 -323.2,763.4 -721.9,763.4"
         style="fill:#ff9843;fill-opacity:1;fill-rule:nonzero;stroke:none"
         id="path314" /><path
         d="m 15459,16489.2 c -20.7,4.5 -41.9,6.9 -63.4,6.9 -259.8,0 -470.4,-340.7 -470.4,-761 h 126.8 c 0,385.5 177.2,704 407,754.1"
         style="fill:#ffc48a;fill-opacity:1;fill-rule:nonzero;stroke:none"
         id="path316" /></g></g></svg>
